%FSLAX42Y42*%
%MOMM*%
G71*
G01*
G75*
%ADD10C,0.25*%
%ADD11C,0.20*%
%ADD12R,2.60X6.00*%
%ADD13R,1.60X3.00*%
%ADD14R,0.90X0.90*%
%ADD15R,0.90X1.30*%
%ADD16R,1.25X1.50*%
%ADD17R,1.30X0.90*%
%ADD18R,0.75X0.75*%
%ADD19C,0.25*%
%ADD20C,0.50*%
%ADD21C,0.30*%
%ADD22C,1.20*%
%ADD23C,1.00*%
%ADD24R,2.50X2.50*%
%ADD25R,0.80X0.35*%
%ADD26R,0.35X0.80*%
%ADD27C,0.35*%
%ADD28R,2.80X6.20*%
%ADD29R,1.80X3.20*%
%ADD30R,1.10X1.10*%
%ADD31R,1.10X1.50*%
%ADD32R,1.45X1.70*%
%ADD33R,1.50X1.10*%
%ADD34R,0.95X0.95*%
%ADD35C,1.40*%
D28*
X9220Y3692D02*
D03*
X9780D02*
D03*
D29*
X9300Y5765D02*
D03*
X9500D02*
D03*
X9700D02*
D03*
X9300Y5225D02*
D03*
X9500D02*
D03*
X9700D02*
D03*
D30*
X9405Y3947D02*
D03*
X9595D02*
D03*
X9405Y4580D02*
D03*
X9595D02*
D03*
X9925Y4688D02*
D03*
X9735D02*
D03*
X9668Y4275D02*
D03*
Y4465D02*
D03*
X9262Y4688D02*
D03*
X9072D02*
D03*
X9455Y4465D02*
D03*
Y4275D02*
D03*
D31*
X9500Y4147D02*
D03*
Y4780D02*
D03*
X9830Y4888D02*
D03*
X9168D02*
D03*
D32*
X9132Y5225D02*
D03*
Y4995D02*
D03*
X9500Y4920D02*
D03*
Y5150D02*
D03*
X9868Y5225D02*
D03*
Y4995D02*
D03*
D33*
X9868Y4370D02*
D03*
X9655D02*
D03*
D34*
X9105Y4130D02*
D03*
Y4280D02*
D03*
D35*
X9875Y4133D02*
D03*
X9680Y4135D02*
D03*
X9220Y3453D02*
D03*
Y3572D02*
D03*
Y3692D02*
D03*
Y3812D02*
D03*
Y3933D02*
D03*
X9780Y3453D02*
D03*
Y3572D02*
D03*
Y3692D02*
D03*
Y3812D02*
D03*
Y3933D02*
D03*
X9700Y4858D02*
D03*
X9360Y4133D02*
D03*
X9297Y4853D02*
D03*
X9868Y4995D02*
D03*
X9132D02*
D03*
X9868Y4540D02*
D03*
X9178Y4547D02*
D03*
X9325Y4458D02*
D03*
X9220Y4355D02*
D03*
X9350Y4990D02*
D03*
X9220Y4205D02*
D03*
M02*
