%FSLAX42Y42*%
%MOMM*%
G71*
G01*
G75*
G04 Layer_Physical_Order=1*
%ADD10C,0.25*%
%ADD11R,3.60X6.00*%
%ADD12R,0.90X1.30*%
%ADD13R,0.90X0.90*%
%ADD14O,2.00X0.50*%
%ADD15R,2.00X0.50*%
%ADD16R,1.60X3.00*%
%ADD17R,0.75X0.75*%
%ADD18C,0.25*%
%ADD19C,2.00*%
%ADD20C,1.00*%
%ADD21C,1.50*%
%ADD22C,1.20*%
D10*
X9303Y4933D02*
G03*
X9267Y4918I0J-50D01*
G01*
X9303Y4933D02*
G03*
X9267Y4918I0J-50D01*
G01*
X9230Y4881D02*
G03*
X9221Y4867I35J-35D01*
G01*
X9230Y4881D02*
G03*
X9221Y4867I35J-35D01*
G01*
X9953Y5412D02*
Y5473D01*
X9940Y5412D02*
Y5473D01*
X9920Y5412D02*
Y5473D01*
X9900Y5412D02*
Y5473D01*
X9880Y5412D02*
Y5473D01*
X9860Y5412D02*
Y5473D01*
X9840Y5412D02*
Y5473D01*
X9820Y5412D02*
Y5473D01*
X9800Y5412D02*
Y5473D01*
X9780Y5412D02*
Y5473D01*
X9760Y5412D02*
Y5473D01*
X9740Y5412D02*
Y5473D01*
X9720Y5412D02*
Y5473D01*
X9700Y5412D02*
Y5473D01*
X9680Y5412D02*
Y5473D01*
X9660Y5412D02*
Y5473D01*
X9640Y5412D02*
Y5473D01*
X9620Y5412D02*
Y5473D01*
X9600Y5412D02*
Y5473D01*
X9580Y5412D02*
Y5473D01*
X9560Y5412D02*
Y5473D01*
X9540Y5412D02*
Y5473D01*
X9520Y5412D02*
Y5473D01*
X9500Y5412D02*
Y5473D01*
X9480Y5412D02*
Y5473D01*
X9460Y5412D02*
Y5473D01*
X9440Y5412D02*
Y5473D01*
X9420Y5412D02*
Y5473D01*
X9047D02*
X9953D01*
X9400Y5412D02*
Y5473D01*
X9047Y5460D02*
X9953D01*
X9047Y5440D02*
X9953D01*
X9047Y5420D02*
X9953D01*
X9380Y5412D02*
Y5473D01*
X9360Y5412D02*
Y5473D01*
X9340Y5412D02*
Y5473D01*
X9320Y5412D02*
Y5473D01*
X9300Y5412D02*
Y5473D01*
X9280Y5412D02*
Y5473D01*
X9260Y5412D02*
Y5473D01*
X9240Y5412D02*
Y5473D01*
X9220Y5412D02*
Y5473D01*
X9200Y5412D02*
Y5473D01*
X9180Y5412D02*
Y5473D01*
X9160Y5412D02*
Y5473D01*
X9047Y5412D02*
X9953D01*
X9140D02*
Y5473D01*
X9120Y5412D02*
Y5473D01*
X9100Y5412D02*
Y5473D01*
X9080Y5412D02*
Y5473D01*
X9060Y5412D02*
Y5473D01*
X9047Y5412D02*
Y5473D01*
X9818Y5720D02*
X9953D01*
X9818Y5700D02*
X9953D01*
X9818Y5680D02*
X9953D01*
X9818Y5660D02*
X9953D01*
Y5628D02*
Y5903D01*
X9940Y5628D02*
Y5903D01*
X9818Y5640D02*
X9953D01*
X9920Y5628D02*
Y5903D01*
X9900Y5628D02*
Y5903D01*
X9880Y5628D02*
Y5903D01*
X9860Y5628D02*
Y5903D01*
X9840Y5628D02*
Y5903D01*
X9820Y5628D02*
Y5903D01*
X9818Y5900D02*
X9953D01*
X9818Y5903D02*
X9953D01*
X9818Y5880D02*
X9953D01*
X9818Y5860D02*
X9953D01*
X9818Y5840D02*
X9953D01*
X9818Y5820D02*
X9953D01*
X9818Y5800D02*
X9953D01*
X9818Y5780D02*
X9953D01*
X9818Y5760D02*
X9953D01*
X9818Y5740D02*
X9953D01*
X9818Y5628D02*
Y5903D01*
Y5628D02*
X9953D01*
Y5523D02*
Y5578D01*
X9940Y5523D02*
Y5578D01*
X9920Y5523D02*
Y5578D01*
X9900Y5523D02*
Y5578D01*
X9880Y5523D02*
Y5578D01*
X9860Y5523D02*
Y5578D01*
X9840Y5523D02*
Y5578D01*
X9820Y5523D02*
Y5578D01*
X9800Y5523D02*
Y5578D01*
X9780Y5523D02*
Y5578D01*
X9760Y5523D02*
Y5578D01*
X9740Y5523D02*
Y5578D01*
X9720Y5523D02*
Y5578D01*
X9700Y5523D02*
Y5578D01*
X9680Y5523D02*
Y5578D01*
X9660Y5523D02*
Y5578D01*
X9640Y5523D02*
Y5578D01*
X9620Y5523D02*
Y5578D01*
X9600Y5523D02*
Y5578D01*
X9580Y5523D02*
Y5578D01*
X9560Y5523D02*
Y5578D01*
X9540Y5523D02*
Y5578D01*
X9520Y5523D02*
Y5578D01*
X9500Y5523D02*
Y5578D01*
X9480Y5523D02*
Y5578D01*
X9460Y5523D02*
Y5578D01*
X9440Y5523D02*
Y5578D01*
X9420Y5523D02*
Y5578D01*
X9048D02*
X9953D01*
X9400Y5523D02*
Y5578D01*
X9048Y5560D02*
X9953D01*
X9380Y5523D02*
Y5578D01*
X9048Y5540D02*
X9953D01*
X9360Y5523D02*
Y5578D01*
X9340Y5523D02*
Y5578D01*
X9320Y5523D02*
Y5578D01*
X9300Y5523D02*
Y5578D01*
X9280Y5523D02*
Y5578D01*
X9260Y5523D02*
Y5578D01*
X9240Y5523D02*
Y5578D01*
X9220Y5523D02*
Y5578D01*
X9200Y5523D02*
Y5578D01*
X9180Y5523D02*
Y5578D01*
X9160Y5523D02*
Y5578D01*
X9048Y5523D02*
X9953D01*
X9140D02*
Y5578D01*
X9120Y5523D02*
Y5578D01*
X9100Y5523D02*
Y5578D01*
X9080Y5523D02*
Y5578D01*
X9060Y5523D02*
Y5578D01*
X9048Y5523D02*
Y5578D01*
X9047Y5700D02*
X9182D01*
X9047Y5680D02*
X9182D01*
X9047Y5660D02*
X9182D01*
X9180Y5628D02*
Y5903D01*
X9182Y5628D02*
Y5903D01*
X9047Y5640D02*
X9182D01*
X9160Y5628D02*
Y5903D01*
X9140Y5628D02*
Y5903D01*
X9120Y5628D02*
Y5903D01*
X9100Y5628D02*
Y5903D01*
X9080Y5628D02*
Y5903D01*
X9060Y5628D02*
Y5903D01*
X9047Y5900D02*
X9182D01*
X9047Y5903D02*
X9182D01*
X9047Y5880D02*
X9182D01*
X9047Y5860D02*
X9182D01*
X9047Y5840D02*
X9182D01*
X9047Y5820D02*
X9182D01*
X9047Y5800D02*
X9182D01*
X9047Y5780D02*
X9182D01*
X9047Y5760D02*
X9182D01*
X9047Y5740D02*
X9182D01*
X9047Y5628D02*
Y5903D01*
Y5720D02*
X9182D01*
X9047Y5628D02*
X9182D01*
X9818Y5180D02*
X9953D01*
X9818Y5160D02*
X9953D01*
X9818Y5140D02*
X9953D01*
X9818Y5120D02*
X9953D01*
X9905Y5080D02*
X9953D01*
X9905Y5060D02*
X9953D01*
X9818Y5100D02*
X9953D01*
X9905Y5040D02*
X9953D01*
X9900Y5088D02*
Y5362D01*
X9880Y5088D02*
Y5362D01*
X9860Y5088D02*
Y5362D01*
X9840Y5088D02*
Y5362D01*
X9905Y5020D02*
X9953D01*
X9905Y5000D02*
X9953D01*
X9820Y5088D02*
Y5362D01*
X9905Y4980D02*
X9953D01*
Y4868D02*
Y5362D01*
X9905Y4960D02*
X9953D01*
X9905Y4940D02*
X9953D01*
X9905Y4920D02*
X9953D01*
X9909Y4868D02*
X9953D01*
X9905Y4900D02*
X9953D01*
X9896Y4880D02*
X9953D01*
X9940Y4868D02*
Y5362D01*
X9920Y4868D02*
Y5362D01*
X9905Y4883D02*
Y5088D01*
X9894Y4883D02*
X9905D01*
X9894D02*
X9909Y4868D01*
X9818Y5360D02*
X9953D01*
X9818Y5362D02*
X9953D01*
X9818Y5340D02*
X9953D01*
X9818Y5320D02*
X9953D01*
X9818Y5300D02*
X9953D01*
X9818Y5280D02*
X9953D01*
X9818Y5260D02*
X9953D01*
X9818Y5240D02*
X9953D01*
X9818Y5220D02*
X9953D01*
X9818Y5088D02*
Y5362D01*
Y5200D02*
X9953D01*
X9818Y5088D02*
X9905D01*
X9632Y5038D02*
X9740D01*
X9740Y4933D02*
Y5038D01*
X9740Y4933D02*
Y5038D01*
X9632Y5020D02*
X9740D01*
X9632Y5000D02*
X9740D01*
X9632Y4980D02*
X9740D01*
X9632Y4960D02*
X9740D01*
X9632Y4940D02*
X9740D01*
X9720Y4933D02*
Y5038D01*
X9700Y4933D02*
Y5038D01*
X9680Y4933D02*
Y5038D01*
X9660Y4933D02*
Y5038D01*
X9640Y4933D02*
Y5038D01*
X9632Y4933D02*
Y5038D01*
Y4933D02*
X9740D01*
X9360D02*
Y5038D01*
X9368Y4933D02*
Y5038D01*
X9340Y4933D02*
Y5038D01*
X9260D02*
X9368D01*
X9260Y5020D02*
X9368D01*
X9260Y5000D02*
X9368D01*
X9260Y4980D02*
X9368D01*
X9260Y4960D02*
X9368D01*
X9260Y4940D02*
X9368D01*
X9180Y5088D02*
Y5362D01*
X9182Y5088D02*
Y5362D01*
X9160Y5088D02*
Y5362D01*
X9140Y5088D02*
Y5362D01*
X9120Y5088D02*
Y5362D01*
X9303Y4933D02*
X9368D01*
X9320D02*
Y5038D01*
X9300Y4932D02*
Y5038D01*
X9280Y4927D02*
Y5038D01*
X9260Y4911D02*
Y5038D01*
Y4920D02*
X9269D01*
X9260Y4911D02*
X9267Y4918D01*
X9220Y4867D02*
Y4883D01*
X9200Y4867D02*
Y4883D01*
X9180Y4867D02*
Y4883D01*
X9160Y4867D02*
Y4883D01*
X9140Y4867D02*
Y4883D01*
X9120Y4867D02*
Y4883D01*
X9047Y5360D02*
X9182D01*
X9047Y5362D02*
X9182D01*
X9047Y5340D02*
X9182D01*
X9047Y5320D02*
X9182D01*
X9047Y5300D02*
X9182D01*
X9047Y5280D02*
X9182D01*
X9047Y5260D02*
X9182D01*
X9047Y5240D02*
X9182D01*
X9047Y5220D02*
X9182D01*
X9047Y5200D02*
X9182D01*
X9047Y5180D02*
X9182D01*
X9100Y5088D02*
Y5362D01*
X9047Y5160D02*
X9182D01*
X9047Y5140D02*
X9182D01*
X9047Y5120D02*
X9182D01*
X9095Y5088D02*
X9182D01*
X9047Y5100D02*
X9182D01*
X9047Y5080D02*
X9095D01*
X9047Y5060D02*
X9095D01*
X9047Y5040D02*
X9095D01*
X9047Y5020D02*
X9095D01*
X9047Y5000D02*
X9095D01*
X9047Y4980D02*
X9095D01*
Y4883D02*
X9232D01*
X9047Y4880D02*
X9229D01*
X9047Y4867D02*
X9221D01*
X9095Y4883D02*
Y5088D01*
X9080Y4867D02*
Y5362D01*
X9060Y4867D02*
Y5362D01*
X9047Y4960D02*
X9095D01*
X9047Y4867D02*
Y5362D01*
Y4940D02*
X9095D01*
X9100Y4867D02*
Y4883D01*
X9047Y4920D02*
X9095D01*
X9047Y4900D02*
X9095D01*
X9422Y4535D02*
X9470Y4583D01*
X9405Y4783D02*
Y4785D01*
X9305Y4535D02*
X9422D01*
X9470Y4583D02*
Y4717D01*
X9405Y4783D02*
X9470Y4717D01*
X9120Y4660D02*
X9305D01*
X9082Y4697D02*
Y4785D01*
Y4697D02*
X9120Y4660D01*
X9500Y4989D02*
Y5225D01*
X9499Y4988D02*
X9500Y4989D01*
X9266Y4846D02*
X9303Y4883D01*
X9143Y4342D02*
X9485D01*
X9120Y4365D02*
X9143Y4342D01*
X9120Y4365D02*
Y4467D01*
X9547Y4280D02*
X9865D01*
X9485Y4342D02*
X9547Y4280D01*
X9120Y4217D02*
X9182Y4280D01*
X9305D01*
X9266Y4785D02*
Y4846D01*
X9823Y4883D02*
X9919Y4787D01*
X9303Y4883D02*
X9823D01*
X9593Y4635D02*
X9593Y4882D01*
X9538Y4405D02*
X9728Y4595D01*
X9305Y4405D02*
X9538D01*
X9728Y4595D02*
Y4785D01*
X9912Y4103D02*
Y4283D01*
X9625Y4147D02*
X9670Y4103D01*
X9503Y4147D02*
X9625D01*
X9670Y4103D02*
X9762D01*
D11*
X9732Y3692D02*
D03*
X9272D02*
D03*
D12*
X9822Y4985D02*
D03*
X9178D02*
D03*
X9500D02*
D03*
X9503Y4147D02*
D03*
D13*
X9918Y4785D02*
D03*
X9728D02*
D03*
X9272D02*
D03*
X9082D02*
D03*
X9405D02*
D03*
X9595D02*
D03*
X9597Y3947D02*
D03*
X9407D02*
D03*
D14*
X9865Y4535D02*
D03*
Y4405D02*
D03*
X9305D02*
D03*
Y4535D02*
D03*
Y4660D02*
D03*
X9865D02*
D03*
X9305Y4280D02*
D03*
D15*
X9865D02*
D03*
D16*
X9700Y5225D02*
D03*
X9500D02*
D03*
X9300D02*
D03*
X9700Y5765D02*
D03*
X9500D02*
D03*
X9300D02*
D03*
D17*
X9912Y4103D02*
D03*
X9762D02*
D03*
D18*
X9700Y5765D02*
X9805D01*
X9195D02*
X9300D01*
X9822Y4985D02*
Y5075D01*
Y4985D02*
X9893D01*
X9700Y5225D02*
X9805D01*
X9700Y5050D02*
Y5225D01*
X9753Y4985D02*
X9822D01*
X9195Y5225D02*
X9300D01*
Y5050D02*
Y5225D01*
X9178Y4985D02*
Y5075D01*
Y4985D02*
X9247D01*
X9178Y4895D02*
Y4985D01*
X9107D02*
X9178D01*
D19*
X9140Y5225D02*
X9260D01*
X9743D02*
X9860D01*
X9753Y5765D02*
X9860D01*
X9168D02*
X9260D01*
D20*
X9500Y5588D02*
Y5778D01*
Y5225D02*
Y5415D01*
X9120Y4217D02*
X9189Y4148D01*
X9475Y4147D01*
D21*
X9120Y4467D02*
D03*
Y4217D02*
D03*
D22*
X9700Y3933D02*
D03*
D03*
Y3812D02*
D03*
Y3692D02*
D03*
Y3572D02*
D03*
Y3453D02*
D03*
X9300Y3933D02*
D03*
D03*
X9300Y3812D02*
D03*
Y3692D02*
D03*
Y3572D02*
D03*
Y3453D02*
D03*
X9905Y4535D02*
D03*
X9593Y4635D02*
D03*
M02*
