%FSLAX42Y42*%
%MOMM*%
G71*
G01*
G75*
G04 Layer_Physical_Order=2*
%ADD10C,0.25*%
%ADD11C,0.20*%
%ADD12R,2.60X6.00*%
%ADD13R,1.60X3.00*%
%ADD14R,0.90X0.90*%
%ADD15R,0.90X1.30*%
%ADD16R,1.25X1.50*%
%ADD17R,1.30X0.90*%
%ADD18R,0.75X0.75*%
%ADD19C,0.25*%
%ADD20C,0.50*%
%ADD21C,0.30*%
%ADD22C,1.20*%
%ADD23C,1.00*%
%ADD24R,2.50X2.50*%
%ADD25R,0.80X0.35*%
%ADD26R,0.35X0.80*%
%ADD27C,0.35*%
D10*
X9468Y4683D02*
Y4980D01*
X9488Y5000D01*
X9022Y5700D02*
X9182D01*
X9022Y5680D02*
X9182D01*
X9022Y5660D02*
X9182D01*
X9180Y5628D02*
Y5903D01*
X9182Y5628D02*
Y5903D01*
X9022Y5640D02*
X9182D01*
X9160Y5628D02*
Y5903D01*
X9140Y5628D02*
Y5903D01*
X9120Y5628D02*
Y5903D01*
X9100Y5628D02*
Y5903D01*
X9080Y5628D02*
Y5903D01*
X9060Y5628D02*
Y5903D01*
X9040Y5628D02*
Y5903D01*
X9022Y5900D02*
X9182D01*
X9022Y5903D02*
X9182D01*
X9022Y5880D02*
X9182D01*
X9022Y5860D02*
X9182D01*
X9022Y5840D02*
X9182D01*
X9022Y5820D02*
X9182D01*
X9022Y5800D02*
X9182D01*
X9022Y5780D02*
X9182D01*
X9022Y5760D02*
X9182D01*
X9022Y5740D02*
X9182D01*
X9022Y5628D02*
Y5903D01*
Y5720D02*
X9182D01*
X9022Y5628D02*
X9182D01*
X9818Y5720D02*
X9978D01*
X9818Y5700D02*
X9978D01*
X9818Y5680D02*
X9978D01*
X9818Y5660D02*
X9978D01*
Y5628D02*
Y5903D01*
X9960Y5628D02*
Y5903D01*
X9818Y5640D02*
X9978D01*
X9940Y5628D02*
Y5903D01*
X9920Y5628D02*
Y5903D01*
X9900Y5628D02*
Y5903D01*
X9880Y5628D02*
Y5903D01*
X9860Y5628D02*
Y5903D01*
X9840Y5628D02*
Y5903D01*
X9820Y5628D02*
Y5903D01*
X9818Y5900D02*
X9978D01*
X9818Y5903D02*
X9978D01*
X9818Y5880D02*
X9978D01*
X9818Y5860D02*
X9978D01*
X9818Y5840D02*
X9978D01*
X9818Y5820D02*
X9978D01*
X9818Y5800D02*
X9978D01*
X9818Y5780D02*
X9978D01*
X9818Y5760D02*
X9978D01*
X9818Y5740D02*
X9978D01*
X9818Y5628D02*
Y5903D01*
Y5628D02*
X9978D01*
Y5522D02*
Y5578D01*
X9960Y5522D02*
Y5578D01*
X9940Y5522D02*
Y5578D01*
X9920Y5522D02*
Y5578D01*
X9900Y5522D02*
Y5578D01*
X9880Y5522D02*
Y5578D01*
X9860Y5522D02*
Y5578D01*
X9840Y5522D02*
Y5578D01*
X9820Y5522D02*
Y5578D01*
X9800Y5522D02*
Y5578D01*
X9780Y5522D02*
Y5578D01*
X9760Y5522D02*
Y5578D01*
X9740Y5522D02*
Y5578D01*
X9720Y5522D02*
Y5578D01*
X9700Y5522D02*
Y5578D01*
X9680Y5522D02*
Y5578D01*
X9660Y5522D02*
Y5578D01*
X9640Y5522D02*
Y5578D01*
X9620Y5522D02*
Y5578D01*
X9600Y5522D02*
Y5578D01*
X9580Y5522D02*
Y5578D01*
X9560Y5522D02*
Y5578D01*
X9540Y5522D02*
Y5578D01*
X9520Y5522D02*
Y5578D01*
X9500Y5522D02*
Y5578D01*
X9480Y5522D02*
Y5578D01*
X9460Y5522D02*
Y5578D01*
X9440Y5522D02*
Y5578D01*
X9420Y5522D02*
Y5578D01*
X9022D02*
X9978D01*
X9400Y5522D02*
Y5578D01*
X9022Y5560D02*
X9978D01*
X9380Y5522D02*
Y5578D01*
X9022Y5540D02*
X9978D01*
X9360Y5522D02*
Y5578D01*
X9340Y5522D02*
Y5578D01*
X9320Y5522D02*
Y5578D01*
X9300Y5522D02*
Y5578D01*
X9280Y5522D02*
Y5578D01*
X9260Y5522D02*
Y5578D01*
X9240Y5522D02*
Y5578D01*
X9220Y5522D02*
Y5578D01*
X9200Y5522D02*
Y5578D01*
X9180Y5522D02*
Y5578D01*
X9160Y5522D02*
Y5578D01*
X9140Y5522D02*
Y5578D01*
X9022Y5522D02*
X9978D01*
X9120D02*
Y5578D01*
X9100Y5522D02*
Y5578D01*
X9080Y5522D02*
Y5578D01*
X9060Y5522D02*
Y5578D01*
X9040Y5522D02*
Y5578D01*
X9022Y5522D02*
Y5578D01*
X9715Y5680D02*
X9892D01*
X9743Y5845D02*
X9850D01*
X9138Y5680D02*
X9275D01*
X9150Y5847D02*
X9262D01*
X9765Y3947D02*
X9780Y3933D01*
X9700Y4755D02*
X9890Y4755D01*
X9178Y4547D02*
X9190Y4560D01*
X9297D01*
X9597Y4858D02*
X9700D01*
X9179Y4683D02*
X9237Y4625D01*
X9188Y4745D02*
X9242Y4690D01*
X9188Y4745D02*
Y4940D01*
X9132Y4995D02*
X9188Y4940D01*
X9242Y4690D02*
X9297D01*
Y4755D02*
Y4853D01*
X9532Y4930D02*
X9597Y4995D01*
X9532Y4858D02*
Y4930D01*
X9597Y4995D02*
X9868D01*
X9030Y4833D02*
X9107D01*
X9410Y4625D02*
X9468Y4683D01*
X9107Y4683D02*
X9179D01*
X9237Y4625D02*
X9410D01*
X9350Y4990D02*
X9403Y4938D01*
Y4858D02*
Y4938D01*
X9080Y4590D02*
X9107Y4617D01*
X9080Y4507D02*
X9105Y4482D01*
Y4430D02*
Y4482D01*
X9107Y4617D02*
Y4683D01*
X9080Y4507D02*
Y4590D01*
X9697Y4560D02*
X9857Y4560D01*
X9325Y4458D02*
X9403D01*
X9025Y4092D02*
X9088Y4030D01*
X9470D01*
X9500Y4060D01*
X9025Y4355D02*
X9220D01*
X9500Y4060D02*
Y4147D01*
X9025Y4092D02*
Y5233D01*
X9220Y4205D02*
X9304Y4289D01*
X9368Y4353D01*
X9304Y4289D02*
X9395Y4380D01*
X9445D01*
X9468Y4403D01*
Y4458D01*
X9725D02*
X9785Y4397D01*
X9505Y4305D02*
X9543D01*
X9532Y4397D02*
X9550Y4380D01*
X9605D01*
X9532Y4397D02*
Y4458D01*
X9680Y4135D02*
Y4305D01*
X9605Y4380D02*
X9680Y4305D01*
X9785D02*
Y4397D01*
X9597Y4458D02*
X9725D01*
X9875Y4133D02*
Y4215D01*
X9785Y4305D02*
X9875Y4215D01*
X9023Y5097D02*
X9182D01*
X9023D02*
Y5470D01*
Y5100D02*
X9182D01*
X9040Y5097D02*
Y5470D01*
X9060Y5097D02*
Y5470D01*
X9182Y5097D02*
Y5412D01*
X9080Y5097D02*
Y5470D01*
X9100Y5097D02*
Y5470D01*
X9120Y5097D02*
Y5470D01*
X9140Y5097D02*
Y5470D01*
X9160Y5097D02*
Y5470D01*
X9180Y5097D02*
Y5470D01*
X9023Y5120D02*
X9182D01*
X9023Y5140D02*
X9182D01*
X9023Y5160D02*
X9182D01*
X9023Y5180D02*
X9182D01*
X9023Y5200D02*
X9182D01*
X9023Y5220D02*
X9182D01*
X9023Y5240D02*
X9182D01*
X9023Y5260D02*
X9182D01*
X9023Y5280D02*
X9182D01*
X9023Y5300D02*
X9182D01*
X9023Y5320D02*
X9182D01*
X9023Y5340D02*
X9182D01*
X9023Y5360D02*
X9182D01*
X9023Y5380D02*
X9182D01*
X9023Y5400D02*
X9182D01*
X9200Y5412D02*
Y5470D01*
X9220Y5412D02*
Y5470D01*
X9240Y5412D02*
Y5470D01*
X9260Y5412D02*
Y5470D01*
X9280Y5412D02*
Y5470D01*
X9300Y5412D02*
Y5470D01*
X9320Y5412D02*
Y5470D01*
X9340Y5412D02*
Y5470D01*
X9182Y5412D02*
X9382D01*
X9023Y5420D02*
X9978D01*
X9023Y5440D02*
X9978D01*
X9382Y5412D02*
X9418D01*
X9382D02*
X9418D01*
X9582D01*
X9360D02*
Y5470D01*
X9023Y5460D02*
X9978D01*
X9023Y5470D02*
X9978D01*
X9380Y5412D02*
Y5470D01*
X9400Y5412D02*
Y5470D01*
X9420Y5412D02*
Y5470D01*
X9440Y5412D02*
Y5470D01*
X9818Y5097D02*
Y5412D01*
X9820Y5097D02*
Y5470D01*
X9840Y5097D02*
Y5470D01*
X9860Y5097D02*
Y5470D01*
X9880Y5097D02*
Y5470D01*
X9900Y5097D02*
Y5470D01*
X9920Y5097D02*
Y5470D01*
X9940Y5097D02*
Y5470D01*
X9960Y5097D02*
Y5470D01*
X9818Y5097D02*
X9978D01*
X9818Y5100D02*
X9978D01*
X9818Y5120D02*
X9978D01*
X9818Y5140D02*
X9978D01*
X9818Y5160D02*
X9978D01*
X9818Y5180D02*
X9978D01*
X9818Y5200D02*
X9978D01*
X9818Y5220D02*
X9978D01*
X9818Y5240D02*
X9978D01*
Y5097D02*
Y5470D01*
X9818Y5260D02*
X9978D01*
X9818Y5280D02*
X9978D01*
X9818Y5300D02*
X9978D01*
X9460Y5412D02*
Y5470D01*
X9480Y5412D02*
Y5470D01*
X9500Y5412D02*
Y5470D01*
X9520Y5412D02*
Y5470D01*
X9582Y5412D02*
X9618D01*
X9582D02*
X9618D01*
X9540D02*
Y5470D01*
X9560Y5412D02*
Y5470D01*
X9580Y5412D02*
Y5470D01*
X9600Y5412D02*
Y5470D01*
X9620Y5412D02*
Y5470D01*
X9640Y5412D02*
Y5470D01*
X9660Y5412D02*
Y5470D01*
X9818Y5320D02*
X9978D01*
X9618Y5412D02*
X9818D01*
Y5340D02*
X9978D01*
X9818Y5360D02*
X9978D01*
X9818Y5380D02*
X9978D01*
X9818Y5400D02*
X9978D01*
X9680Y5412D02*
Y5470D01*
X9700Y5412D02*
Y5470D01*
X9720Y5412D02*
Y5470D01*
X9740Y5412D02*
Y5470D01*
X9760Y5412D02*
Y5470D01*
X9780Y5412D02*
Y5470D01*
X9800Y5412D02*
Y5470D01*
D11*
X9125Y4208D02*
G03*
X9315Y4205I95J-3D01*
G01*
X9535Y4028D02*
G03*
X9546Y4047I-35J32D01*
G01*
X9535Y4028D02*
G03*
X9546Y4047I-35J32D01*
G01*
X9632Y4217D02*
G03*
X9775Y4135I47J-82D01*
G01*
G03*
X9728Y4217I-95J0D01*
G01*
X9315Y4205D02*
G03*
X9312Y4230I-95J0D01*
G01*
X9445Y4333D02*
G03*
X9457Y4334I0J47D01*
G01*
X9445Y4333D02*
G03*
X9457Y4334I0J47D01*
G01*
X9792Y4880D02*
G03*
X9730Y4947I-92J-22D01*
G01*
X9832Y4397D02*
G03*
X9820Y4430I-47J0D01*
G01*
X9832Y4397D02*
G03*
X9820Y4430I-47J0D01*
G01*
X9922Y4215D02*
G03*
X9919Y4233I-47J0D01*
G01*
X9922Y4215D02*
G03*
X9919Y4233I-47J0D01*
G01*
X9816Y4207D02*
G03*
X9970Y4133I59J-74D01*
G01*
G03*
X9922Y4215I-95J0D01*
G01*
X9980Y4073D02*
G03*
X9968Y4064I20J-40D01*
G01*
X9785Y4947D02*
G03*
X9962Y4995I82J47D01*
G01*
X9072Y4112D02*
X9107Y4078D01*
X9420D01*
X9140D02*
Y4154D01*
X9072Y4120D02*
X9178D01*
X9072Y4140D02*
X9151D01*
X9105Y4080D02*
X9420D01*
X9085Y4100D02*
X9420D01*
X9160Y4078D02*
Y4131D01*
X9200Y4078D02*
Y4112D01*
X9180Y4078D02*
Y4119D01*
X9220Y4078D02*
Y4110D01*
X9240Y4078D02*
Y4112D01*
X9260Y4078D02*
Y4119D01*
X9280Y4078D02*
Y4131D01*
X9100Y4085D02*
Y4208D01*
X9300Y4078D02*
Y4154D01*
X9120Y4078D02*
Y4208D01*
X9072Y4112D02*
Y4208D01*
X9080Y4105D02*
Y4208D01*
X9072Y4160D02*
X9136D01*
X9320Y4078D02*
Y4238D01*
X9340Y4078D02*
Y4258D01*
X9360Y4078D02*
Y4278D01*
X9380Y4078D02*
Y4298D01*
X9400Y4078D02*
Y4318D01*
X9420Y4078D02*
Y4247D01*
X9420Y4078D02*
Y4333D01*
X9535Y4028D02*
X9931D01*
X9560D02*
Y4047D01*
X9580Y4028D02*
Y4047D01*
X9543Y4040D02*
X9853D01*
X9546Y4047D02*
X9580D01*
X9620Y4028D02*
Y4061D01*
X9660Y4028D02*
Y4042D01*
X9640Y4028D02*
Y4049D01*
X9680Y4028D02*
Y4040D01*
X9580Y4060D02*
X9622D01*
X9700Y4028D02*
Y4042D01*
X9720Y4028D02*
Y4049D01*
X9580Y4047D02*
Y4233D01*
Y4080D02*
X9603D01*
X9580Y4100D02*
X9592D01*
X9262Y4120D02*
X9420D01*
X9289Y4140D02*
X9420D01*
X9304Y4160D02*
X9420D01*
X9580D02*
X9588D01*
X9600Y4028D02*
Y4084D01*
X9740Y4028D02*
Y4061D01*
X9760Y4028D02*
Y4084D01*
X9738Y4060D02*
X9814D01*
X9757Y4080D02*
X9796D01*
X9072Y4180D02*
X9128D01*
X9312D02*
X9420D01*
X9072Y4200D02*
X9125D01*
X9072Y4208D02*
X9125D01*
X9315Y4200D02*
X9420D01*
X9314Y4220D02*
X9420D01*
X9312Y4230D02*
X9337Y4255D01*
X9580Y4180D02*
X9596D01*
X9600Y4186D02*
Y4233D01*
X9322Y4240D02*
X9420D01*
Y4247D02*
X9457D01*
X9580Y4233D02*
X9603D01*
X9342Y4260D02*
X9457D01*
X9337Y4255D02*
X9401Y4319D01*
X9337Y4255D02*
X9415Y4333D01*
X9362Y4280D02*
X9457D01*
X9415Y4333D02*
X9445D01*
X9382Y4300D02*
X9457D01*
X9402Y4320D02*
X9457D01*
X9440Y4247D02*
Y4333D01*
X9603Y4233D02*
Y4315D01*
X9457Y4247D02*
Y4334D01*
X9580Y4200D02*
X9611D01*
X9580Y4220D02*
X9632D01*
X9620Y4209D02*
Y4233D01*
X9632Y4217D02*
Y4233D01*
X9607D02*
X9632D01*
X9728Y4220D02*
X9803D01*
X9728Y4217D02*
Y4233D01*
X9760Y4186D02*
Y4233D01*
X9764Y4180D02*
X9793D01*
X9749Y4200D02*
X9808D01*
X9740Y4209D02*
Y4233D01*
X9728D02*
X9753D01*
X9728D02*
X9753D01*
X9790D01*
X9607D02*
Y4310D01*
X9772Y4638D02*
Y4650D01*
X9965D01*
X9760Y4931D02*
Y4947D01*
X9730D02*
X9785D01*
X9747Y4940D02*
X9790D01*
X9772Y4650D02*
Y4660D01*
Y4650D02*
Y4660D01*
X9965D01*
X9772D02*
Y4678D01*
Y4660D02*
Y4678D01*
Y4660D02*
X9980D01*
X9772Y4920D02*
X9809D01*
X9780Y4028D02*
Y4233D01*
X9820Y4028D02*
Y4055D01*
X9800Y4028D02*
Y4074D01*
X9768Y4100D02*
X9786D01*
X9772Y4160D02*
X9784D01*
X9800Y4191D02*
Y4223D01*
X9790Y4233D02*
X9816Y4207D01*
X9840Y4028D02*
Y4044D01*
X9860Y4028D02*
Y4039D01*
X9880Y4028D02*
Y4038D01*
X9900Y4028D02*
Y4041D01*
X9920Y4028D02*
Y4049D01*
X9897Y4040D02*
X9944D01*
X9940Y4036D02*
Y4063D01*
X9857Y4300D02*
Y4378D01*
X9832D02*
X9857D01*
X9862Y4295D02*
Y4378D01*
X9832D02*
Y4397D01*
X9840Y4378D02*
Y4430D01*
X9940Y4202D02*
Y4233D01*
X9880Y4378D02*
Y4430D01*
X9900Y4378D02*
Y4430D01*
X9920Y4378D02*
Y4430D01*
X9931Y4028D02*
X9968Y4064D01*
X9936Y4060D02*
X9964D01*
X9954Y4080D02*
X9980D01*
X9942Y4200D02*
X9980D01*
X9922Y4220D02*
X9980D01*
X9960Y4056D02*
Y4090D01*
X9964Y4100D02*
X9980D01*
X9969Y4120D02*
X9980D01*
X9970Y4140D02*
X9980D01*
X9966Y4160D02*
X9980D01*
X9957Y4180D02*
X9980D01*
X9919Y4233D02*
X9980D01*
X9862Y4378D02*
X9980D01*
X9832Y4380D02*
X9980D01*
X9832Y4400D02*
X9980D01*
X9827Y4420D02*
X9980D01*
X9960Y4175D02*
Y4233D01*
X9980Y4073D02*
Y4233D01*
X9980Y4073D02*
Y4233D01*
X9940Y4378D02*
Y4430D01*
X9960Y4378D02*
Y4430D01*
X9980Y4378D02*
Y5000D01*
X9980Y4378D02*
Y5000D01*
X9772Y4638D02*
Y4650D01*
X9820Y4430D02*
X9965D01*
X9780Y4650D02*
Y4660D01*
X9800Y4650D02*
Y4660D01*
X9820Y4650D02*
Y4660D01*
X9840Y4650D02*
Y4660D01*
X9860Y4650D02*
Y4660D01*
X9880Y4650D02*
Y4660D01*
X9965Y4430D02*
Y4650D01*
X9900D02*
Y4660D01*
X9920Y4650D02*
Y4660D01*
X9940Y4650D02*
Y4660D01*
X9960Y4650D02*
Y4660D01*
X9800Y4880D02*
Y4928D01*
X9792Y4880D02*
X9965D01*
X9820D02*
Y4913D01*
X9780Y4909D02*
Y4947D01*
X9860Y4880D02*
Y4900D01*
X9840Y4880D02*
Y4904D01*
X9965Y4660D02*
Y4880D01*
X9880D02*
Y4901D01*
X9900Y4880D02*
Y4906D01*
X9920Y4880D02*
Y4916D01*
X9940Y4880D02*
Y4934D01*
X9960Y4880D02*
Y4973D01*
X9965Y4440D02*
X9980D01*
X9965Y4460D02*
X9980D01*
X9965Y4480D02*
X9980D01*
X9965Y4500D02*
X9980D01*
X9965Y4520D02*
X9980D01*
X9965Y4540D02*
X9980D01*
X9965Y4560D02*
X9980D01*
X9965Y4580D02*
X9980D01*
X9965Y4600D02*
X9980D01*
X9965Y4620D02*
X9980D01*
X9965Y4640D02*
X9980D01*
X9965Y4680D02*
X9980D01*
X9965Y4700D02*
X9980D01*
X9965Y4720D02*
X9980D01*
X9785Y4900D02*
X9980D01*
X9926Y4920D02*
X9980D01*
X9945Y4940D02*
X9980D01*
X9956Y4960D02*
X9980D01*
X9961Y4980D02*
X9980D01*
X9962Y5000D02*
X9980D01*
X9965Y4740D02*
X9980D01*
X9965Y4760D02*
X9980D01*
X9965Y4780D02*
X9980D01*
X9965Y4800D02*
X9980D01*
X9965Y4820D02*
X9980D01*
X9965Y4840D02*
X9980D01*
X9965Y4860D02*
X9980D01*
X9965Y4880D02*
X9980D01*
D12*
X9220Y3692D02*
D03*
X9780D02*
D03*
D13*
X9700Y5765D02*
D03*
X9500D02*
D03*
X9300D02*
D03*
X9700Y5225D02*
D03*
X9500D02*
D03*
X9300D02*
D03*
D14*
X9405Y3947D02*
D03*
X9595D02*
D03*
D15*
X9500Y4147D02*
D03*
D16*
X9868Y4540D02*
D03*
Y4770D02*
D03*
D18*
X9107Y4833D02*
D03*
Y4683D02*
D03*
X9785Y4305D02*
D03*
X9935D02*
D03*
X9105Y4430D02*
D03*
Y4280D02*
D03*
X9680Y4305D02*
D03*
X9530D02*
D03*
D19*
X9195Y5765D02*
X9300D01*
X9700D02*
X9805D01*
X9105Y4217D02*
Y4280D01*
X9468Y4305D02*
X9530D01*
X9593D01*
X9935Y4242D02*
Y4305D01*
X9872D02*
X9935D01*
Y4367D01*
X9868Y4670D02*
Y4770D01*
X9955D01*
X9868D02*
Y4870D01*
X9195Y5225D02*
X9300D01*
Y5400D01*
X9500Y5225D02*
Y5400D01*
X9700Y5225D02*
Y5400D01*
Y5225D02*
X9805D01*
D20*
X9500Y5547D02*
Y5765D01*
D21*
X9235Y3947D02*
X9405D01*
X9595D02*
X9765D01*
D22*
X9875Y4133D02*
D03*
X9680Y4135D02*
D03*
X9220Y3453D02*
D03*
Y3572D02*
D03*
Y3692D02*
D03*
Y3812D02*
D03*
Y3933D02*
D03*
X9780Y3453D02*
D03*
Y3572D02*
D03*
Y3692D02*
D03*
Y3812D02*
D03*
Y3933D02*
D03*
X9700Y4858D02*
D03*
X9360Y4133D02*
D03*
X9297Y4853D02*
D03*
X9868Y4995D02*
D03*
X9132D02*
D03*
X9868Y4540D02*
D03*
X9178Y4547D02*
D03*
X9325Y4458D02*
D03*
X9220Y4355D02*
D03*
X9350Y4990D02*
D03*
X9220Y4205D02*
D03*
D23*
X9488Y5000D02*
D03*
D24*
X9500Y4658D02*
D03*
D25*
X9697Y4560D02*
D03*
Y4625D02*
D03*
Y4690D02*
D03*
Y4755D02*
D03*
X9297Y4755D02*
D03*
Y4690D02*
D03*
Y4625D02*
D03*
Y4560D02*
D03*
D26*
X9597Y4858D02*
D03*
X9532D02*
D03*
X9468D02*
D03*
X9403D02*
D03*
Y4458D02*
D03*
X9468D02*
D03*
X9532D02*
D03*
X9597D02*
D03*
D27*
X9028Y5230D02*
X9080Y5283D01*
M02*
