%FSLAX42Y42*%
%MOMM*%
G71*
G01*
G75*
G04 Layer_Physical_Order=2*
%ADD10C,0.25*%
%ADD11R,3.60X6.00*%
%ADD12R,0.90X1.30*%
%ADD13R,0.90X0.90*%
%ADD14O,2.00X0.50*%
%ADD15R,2.00X0.50*%
%ADD16R,1.60X3.00*%
%ADD17R,0.75X0.75*%
%ADD18C,0.25*%
%ADD19C,2.00*%
%ADD20C,1.00*%
%ADD21C,1.50*%
%ADD22C,1.20*%
%ADD23R,1.25X1.50*%
%ADD24R,1.50X1.25*%
%ADD25R,1.50X2.65*%
%ADD26R,1.50X1.75*%
%ADD27R,2.63X1.30*%
D10*
X9865Y5180D02*
X9953D01*
X9865Y5160D02*
X9953D01*
X9865Y5140D02*
X9953D01*
X9865Y5120D02*
X9953D01*
X9865Y5100D02*
X9953D01*
X9860Y5192D02*
Y5362D01*
X9865Y5080D02*
X9953D01*
X9865Y5060D02*
X9953D01*
X9865Y5040D02*
X9953D01*
Y5017D02*
Y5362D01*
X9940Y5017D02*
Y5362D01*
X9865Y5020D02*
X9953D01*
X9865Y5017D02*
X9953D01*
X9920D02*
Y5362D01*
X9900Y5017D02*
Y5362D01*
X9880Y5017D02*
Y5362D01*
X9865Y5017D02*
Y5192D01*
X9818Y5360D02*
X9953D01*
X9818Y5362D02*
X9953D01*
X9818Y5340D02*
X9953D01*
X9818Y5320D02*
X9953D01*
X9818Y5300D02*
X9953D01*
X9818Y5280D02*
X9953D01*
X9818Y5260D02*
X9953D01*
X9818Y5240D02*
X9953D01*
X9818Y5220D02*
X9953D01*
X9818Y5200D02*
X9953D01*
X9818Y5192D02*
X9865D01*
X9840D02*
Y5362D01*
X9820Y5192D02*
Y5362D01*
X9818Y5192D02*
Y5362D01*
X9180Y5192D02*
Y5362D01*
X9182Y5192D02*
Y5362D01*
X9135Y5192D02*
X9182D01*
X9160D02*
Y5362D01*
X9140Y5192D02*
Y5362D01*
X9047Y5080D02*
X9135D01*
X9047Y5060D02*
X9135D01*
Y5017D02*
Y5192D01*
X9047Y5040D02*
X9135D01*
X9047Y5020D02*
X9135D01*
X9047Y5017D02*
X9135D01*
X9120D02*
Y5362D01*
X9100Y5017D02*
Y5362D01*
X9080Y5017D02*
Y5362D01*
X9060Y5017D02*
Y5362D01*
X9047Y5360D02*
X9182D01*
X9047Y5362D02*
X9182D01*
X9047Y5340D02*
X9182D01*
X9047Y5320D02*
X9182D01*
X9047Y5300D02*
X9182D01*
X9047Y5280D02*
X9182D01*
X9047Y5260D02*
X9182D01*
X9047Y5240D02*
X9182D01*
X9047Y5220D02*
X9182D01*
X9047Y5200D02*
X9182D01*
X9047Y5180D02*
X9135D01*
X9047Y5160D02*
X9135D01*
X9047Y5017D02*
Y5362D01*
Y5140D02*
X9135D01*
X9047Y5120D02*
X9135D01*
X9047Y5100D02*
X9135D01*
X9712Y4147D02*
X9830Y4265D01*
X9235Y4850D02*
X9765D01*
Y4528D02*
Y4850D01*
X9503Y4147D02*
X9712D01*
X9830Y4265D02*
Y4462D01*
X9765Y4528D02*
X9830Y4462D01*
X9953Y5412D02*
Y5472D01*
X9940Y5412D02*
Y5472D01*
X9920Y5412D02*
Y5472D01*
X9900Y5412D02*
Y5472D01*
X9880Y5412D02*
Y5472D01*
X9860Y5412D02*
Y5472D01*
X9840Y5412D02*
Y5472D01*
X9820Y5412D02*
Y5472D01*
X9800Y5412D02*
Y5472D01*
X9780Y5412D02*
Y5472D01*
X9760Y5412D02*
Y5472D01*
X9740Y5412D02*
Y5472D01*
X9720Y5412D02*
Y5472D01*
X9700Y5412D02*
Y5472D01*
X9680Y5412D02*
Y5472D01*
X9660Y5412D02*
Y5472D01*
X9640Y5412D02*
Y5472D01*
X9620Y5412D02*
Y5472D01*
X9600Y5412D02*
Y5472D01*
X9580Y5412D02*
Y5472D01*
X9560Y5412D02*
Y5472D01*
X9540Y5412D02*
Y5472D01*
X9520Y5412D02*
Y5472D01*
X9500Y5412D02*
Y5472D01*
X9480Y5412D02*
Y5472D01*
X9460Y5412D02*
Y5472D01*
X9440Y5412D02*
Y5472D01*
X9420Y5412D02*
Y5472D01*
X9047D02*
X9953D01*
X9400Y5412D02*
Y5472D01*
X9047Y5460D02*
X9953D01*
X9047Y5440D02*
X9953D01*
X9047Y5420D02*
X9953D01*
X9380Y5412D02*
Y5472D01*
X9360Y5412D02*
Y5472D01*
X9340Y5412D02*
Y5472D01*
X9320Y5412D02*
Y5472D01*
X9300Y5412D02*
Y5472D01*
X9280Y5412D02*
Y5472D01*
X9260Y5412D02*
Y5472D01*
X9240Y5412D02*
Y5472D01*
X9220Y5412D02*
Y5472D01*
X9200Y5412D02*
Y5472D01*
X9180Y5412D02*
Y5472D01*
X9160Y5412D02*
Y5472D01*
X9047Y5412D02*
X9953D01*
X9140D02*
Y5472D01*
X9120Y5412D02*
Y5472D01*
X9100Y5412D02*
Y5472D01*
X9080Y5412D02*
Y5472D01*
X9060Y5412D02*
Y5472D01*
X9047Y5412D02*
Y5472D01*
X9953Y5522D02*
Y5578D01*
X9940Y5522D02*
Y5578D01*
X9920Y5522D02*
Y5578D01*
X9900Y5522D02*
Y5578D01*
X9880Y5522D02*
Y5578D01*
X9860Y5522D02*
Y5578D01*
X9840Y5522D02*
Y5578D01*
X9820Y5522D02*
Y5578D01*
X9800Y5522D02*
Y5578D01*
X9780Y5522D02*
Y5578D01*
X9760Y5522D02*
Y5578D01*
X9740Y5522D02*
Y5578D01*
X9720Y5522D02*
Y5578D01*
X9700Y5522D02*
Y5578D01*
X9680Y5522D02*
Y5578D01*
X9660Y5522D02*
Y5578D01*
X9640Y5522D02*
Y5578D01*
X9620Y5522D02*
Y5578D01*
X9600Y5522D02*
Y5578D01*
X9580Y5522D02*
Y5578D01*
X9560Y5522D02*
Y5578D01*
X9540Y5522D02*
Y5578D01*
X9520Y5522D02*
Y5578D01*
X9500Y5522D02*
Y5578D01*
X9480Y5522D02*
Y5578D01*
X9460Y5522D02*
Y5578D01*
X9440Y5522D02*
Y5578D01*
X9420Y5522D02*
Y5578D01*
X9050D02*
X9953D01*
X9400Y5522D02*
Y5578D01*
X9047Y5560D02*
X9953D01*
X9380Y5522D02*
Y5578D01*
X9047Y5540D02*
X9953D01*
X9360Y5522D02*
Y5578D01*
X9340Y5522D02*
Y5578D01*
X9320Y5522D02*
Y5578D01*
X9300Y5522D02*
Y5578D01*
X9280Y5522D02*
Y5578D01*
X9260Y5522D02*
Y5578D01*
X9240Y5522D02*
Y5578D01*
X9220Y5522D02*
Y5578D01*
X9200Y5522D02*
Y5578D01*
X9180Y5522D02*
Y5578D01*
X9160Y5522D02*
Y5578D01*
X9047Y5522D02*
X9953D01*
X9140D02*
Y5578D01*
X9120Y5522D02*
Y5578D01*
X9100Y5522D02*
Y5578D01*
X9080Y5522D02*
Y5578D01*
X9060Y5522D02*
Y5578D01*
X9047Y5522D02*
Y5578D01*
X9818Y5720D02*
X9953D01*
X9818Y5700D02*
X9953D01*
X9818Y5680D02*
X9953D01*
X9818Y5660D02*
X9953D01*
Y5628D02*
Y5903D01*
X9940Y5628D02*
Y5903D01*
X9818Y5640D02*
X9953D01*
X9920Y5628D02*
Y5903D01*
X9900Y5628D02*
Y5903D01*
X9880Y5628D02*
Y5903D01*
X9860Y5628D02*
Y5903D01*
X9840Y5628D02*
Y5903D01*
X9820Y5628D02*
Y5903D01*
X9818Y5900D02*
X9953D01*
X9818Y5903D02*
X9953D01*
X9818Y5880D02*
X9953D01*
X9818Y5860D02*
X9953D01*
X9818Y5840D02*
X9953D01*
X9818Y5820D02*
X9953D01*
X9818Y5800D02*
X9953D01*
X9818Y5780D02*
X9953D01*
X9818Y5760D02*
X9953D01*
X9818Y5740D02*
X9953D01*
X9818Y5628D02*
Y5903D01*
Y5628D02*
X9953D01*
X9047Y5700D02*
X9182D01*
X9047Y5680D02*
X9182D01*
X9047Y5660D02*
X9182D01*
X9180Y5628D02*
Y5903D01*
X9182Y5628D02*
Y5903D01*
X9047Y5640D02*
X9182D01*
X9160Y5628D02*
Y5903D01*
X9140Y5628D02*
Y5903D01*
X9120Y5628D02*
Y5903D01*
X9100Y5628D02*
Y5903D01*
X9080Y5628D02*
Y5903D01*
X9060Y5628D02*
Y5903D01*
X9047Y5900D02*
X9182D01*
X9047Y5903D02*
X9182D01*
X9047Y5880D02*
X9182D01*
X9047Y5860D02*
X9182D01*
X9047Y5840D02*
X9182D01*
X9047Y5820D02*
X9182D01*
X9047Y5800D02*
X9182D01*
X9047Y5780D02*
X9182D01*
X9047Y5760D02*
X9182D01*
X9047Y5740D02*
X9182D01*
X9047Y5628D02*
Y5903D01*
Y5720D02*
X9182D01*
X9050Y5628D02*
X9182D01*
X9372Y4147D02*
X9373Y4148D01*
X9120Y4467D02*
X9253D01*
X9282Y4438D01*
X9401D01*
X9905Y4190D02*
Y4535D01*
X9435Y4308D02*
X9496Y4368D01*
X9210Y4308D02*
X9435D01*
X9120Y4217D02*
X9210Y4308D01*
X9496Y4368D02*
Y4638D01*
X9700Y4450D02*
Y4528D01*
X9498Y4635D02*
X9593D01*
X9700Y4450D02*
X9755Y4395D01*
X9593Y4635D02*
X9700Y4528D01*
X9503Y4272D02*
X9591Y4361D01*
Y4438D01*
X9503Y4147D02*
Y4272D01*
D11*
X9732Y3692D02*
D03*
X9272D02*
D03*
D12*
X9496Y4638D02*
D03*
X9503Y4147D02*
D03*
D13*
X9591Y4438D02*
D03*
X9401D02*
D03*
X9597Y3947D02*
D03*
X9407D02*
D03*
D16*
X9300Y5225D02*
D03*
X9500D02*
D03*
X9700D02*
D03*
X9300Y5765D02*
D03*
X9500D02*
D03*
X9700D02*
D03*
D17*
X9755Y4190D02*
D03*
X9905D02*
D03*
X9755Y4395D02*
D03*
X9905D02*
D03*
D18*
X9765Y5080D02*
X9853D01*
X9700Y5225D02*
X9805D01*
X9195D02*
X9300D01*
X9147Y5080D02*
X9235D01*
X9700Y5765D02*
X9805D01*
X9195D02*
X9300D01*
D19*
X9732Y5225D02*
X9847D01*
X9140D02*
X9268D01*
X9735Y5765D02*
X9853D01*
X9150Y5765D02*
X9268Y5765D01*
D20*
X9500Y5217D02*
Y5420D01*
Y5562D02*
Y5765D01*
X9350Y4148D02*
X9472Y4147D01*
D21*
X9120Y4467D02*
D03*
Y4217D02*
D03*
D22*
X9700Y3933D02*
D03*
D03*
Y3812D02*
D03*
Y3692D02*
D03*
Y3572D02*
D03*
Y3453D02*
D03*
X9300Y3933D02*
D03*
D03*
X9300Y3812D02*
D03*
Y3692D02*
D03*
Y3572D02*
D03*
Y3453D02*
D03*
X9905Y4535D02*
D03*
X9593Y4635D02*
D03*
D23*
X9235Y5080D02*
D03*
X9235Y4850D02*
D03*
X9500Y5080D02*
D03*
Y4850D02*
D03*
X9765Y5080D02*
D03*
Y4850D02*
D03*
D24*
X9120Y4148D02*
D03*
X9350D02*
D03*
D25*
X9120Y4600D02*
D03*
D26*
Y4130D02*
D03*
D27*
X9581Y4638D02*
D03*
M02*
