%FSLAX42Y42*%
%MOMM*%
G71*
G01*
G75*
%ADD10C,0.25*%
%ADD11R,3.60X6.00*%
%ADD12R,0.90X1.30*%
%ADD13R,0.90X0.90*%
%ADD14O,2.00X0.50*%
%ADD15R,2.00X0.50*%
%ADD16R,1.60X3.00*%
%ADD17R,0.75X0.75*%
%ADD18C,0.25*%
%ADD19C,2.00*%
%ADD20C,1.00*%
%ADD21C,1.50*%
%ADD22C,1.20*%
%ADD23R,1.25X1.50*%
%ADD24R,1.50X1.25*%
%ADD25R,1.50X2.65*%
%ADD26R,1.50X1.75*%
%ADD27R,2.63X1.30*%
%ADD28R,3.80X6.20*%
%ADD29R,1.10X1.50*%
%ADD30R,1.10X1.10*%
%ADD31O,2.20X0.70*%
%ADD32R,2.20X0.70*%
%ADD33R,1.80X3.20*%
%ADD34R,0.95X0.95*%
%ADD35C,1.70*%
%ADD36C,1.40*%
%ADD37R,1.45X1.70*%
%ADD38R,1.70X1.45*%
D28*
X9732Y3692D02*
D03*
X9272D02*
D03*
D29*
X9496Y4638D02*
D03*
X9503Y4147D02*
D03*
D30*
X9591Y4438D02*
D03*
X9401D02*
D03*
X9597Y3947D02*
D03*
X9407D02*
D03*
D33*
X9300Y5225D02*
D03*
X9500D02*
D03*
X9700D02*
D03*
X9300Y5765D02*
D03*
X9500D02*
D03*
X9700D02*
D03*
D34*
X9755Y4190D02*
D03*
X9905D02*
D03*
X9755Y4395D02*
D03*
X9905D02*
D03*
D35*
X9120Y4467D02*
D03*
Y4217D02*
D03*
D36*
X9700Y3933D02*
D03*
D03*
Y3812D02*
D03*
Y3692D02*
D03*
Y3572D02*
D03*
Y3453D02*
D03*
X9300Y3933D02*
D03*
D03*
X9300Y3812D02*
D03*
Y3692D02*
D03*
Y3572D02*
D03*
Y3453D02*
D03*
X9905Y4535D02*
D03*
X9593Y4635D02*
D03*
D37*
X9235Y5080D02*
D03*
X9235Y4850D02*
D03*
X9500Y5080D02*
D03*
Y4850D02*
D03*
X9765Y5080D02*
D03*
Y4850D02*
D03*
D38*
X9120Y4148D02*
D03*
X9350D02*
D03*
M02*
