%FSLAX42Y42*%
%MOMM*%
G71*
G01*
G75*
G04 Layer_Physical_Order=1*
%ADD10C,0.25*%
%ADD11C,0.20*%
%ADD12R,2.60X6.00*%
%ADD13R,1.60X3.00*%
%ADD14R,0.90X0.90*%
%ADD15R,0.90X1.30*%
%ADD16R,1.25X1.50*%
%ADD17R,1.30X0.90*%
%ADD18R,0.75X0.75*%
%ADD19C,0.25*%
%ADD20C,0.50*%
%ADD21C,0.30*%
%ADD22C,1.20*%
D10*
X9747Y4943D02*
G03*
X9632Y4928I-47J-85D01*
G01*
X9084Y4883D02*
G03*
X9083Y4868I48J-12D01*
G01*
X9818Y5720D02*
X9978D01*
X9818Y5700D02*
X9978D01*
X9818Y5680D02*
X9978D01*
X9818Y5660D02*
X9978D01*
Y5628D02*
Y5903D01*
X9960Y5628D02*
Y5903D01*
X9818Y5640D02*
X9978D01*
X9940Y5628D02*
Y5903D01*
X9920Y5628D02*
Y5903D01*
X9900Y5628D02*
Y5903D01*
X9880Y5628D02*
Y5903D01*
X9860Y5628D02*
Y5903D01*
X9840Y5628D02*
Y5903D01*
X9820Y5628D02*
Y5903D01*
X9818Y5900D02*
X9978D01*
X9818Y5903D02*
X9978D01*
X9818Y5880D02*
X9978D01*
X9818Y5860D02*
X9978D01*
X9818Y5840D02*
X9978D01*
X9818Y5820D02*
X9978D01*
X9818Y5800D02*
X9978D01*
X9818Y5780D02*
X9978D01*
X9818Y5760D02*
X9978D01*
X9818Y5740D02*
X9978D01*
X9818Y5628D02*
Y5903D01*
Y5628D02*
X9978D01*
X9022Y5700D02*
X9182D01*
X9022Y5680D02*
X9182D01*
X9022Y5660D02*
X9182D01*
X9180Y5628D02*
Y5903D01*
X9182Y5628D02*
Y5903D01*
X9022Y5640D02*
X9182D01*
X9160Y5628D02*
Y5903D01*
X9140Y5628D02*
Y5903D01*
X9120Y5628D02*
Y5903D01*
X9100Y5628D02*
Y5903D01*
X9080Y5628D02*
Y5903D01*
X9060Y5628D02*
Y5903D01*
X9040Y5628D02*
Y5903D01*
X9022Y5900D02*
X9182D01*
X9022Y5903D02*
X9182D01*
X9022Y5880D02*
X9182D01*
X9022Y5860D02*
X9182D01*
X9022Y5840D02*
X9182D01*
X9022Y5820D02*
X9182D01*
X9022Y5800D02*
X9182D01*
X9022Y5780D02*
X9182D01*
X9022Y5760D02*
X9182D01*
X9022Y5740D02*
X9182D01*
X9022Y5628D02*
Y5903D01*
Y5720D02*
X9182D01*
X9022Y5628D02*
X9182D01*
X9978Y5523D02*
Y5578D01*
X9960Y5523D02*
Y5578D01*
X9940Y5522D02*
Y5578D01*
X9920Y5522D02*
Y5578D01*
X9954Y5523D02*
X9978D01*
X9900Y5522D02*
Y5578D01*
X9880Y5522D02*
Y5578D01*
X9860Y5522D02*
Y5578D01*
X9840Y5522D02*
Y5578D01*
X9820Y5522D02*
Y5578D01*
X9800Y5522D02*
Y5578D01*
X9780Y5522D02*
Y5578D01*
X9760Y5522D02*
Y5578D01*
X9740Y5522D02*
Y5578D01*
X9720Y5522D02*
Y5578D01*
X9700Y5522D02*
Y5578D01*
X9680Y5522D02*
Y5578D01*
X9660Y5522D02*
Y5578D01*
X9640Y5522D02*
Y5578D01*
X9620Y5522D02*
Y5578D01*
X9600Y5522D02*
Y5578D01*
X9580Y5522D02*
Y5578D01*
X9560Y5522D02*
Y5578D01*
X9540Y5522D02*
Y5578D01*
X9520Y5522D02*
Y5578D01*
X9500Y5522D02*
Y5578D01*
X9480Y5522D02*
Y5578D01*
X9460Y5522D02*
Y5578D01*
X9440Y5522D02*
Y5578D01*
X9420Y5522D02*
Y5578D01*
X9022D02*
X9978D01*
X9400Y5522D02*
Y5578D01*
X9022Y5560D02*
X9978D01*
X9380Y5522D02*
Y5578D01*
X9022Y5540D02*
X9978D01*
X9360Y5522D02*
Y5578D01*
X9340Y5522D02*
Y5578D01*
X9320Y5522D02*
Y5578D01*
X9300Y5522D02*
Y5578D01*
X9280Y5522D02*
Y5578D01*
X9260Y5522D02*
Y5578D01*
X9240Y5522D02*
Y5578D01*
X9220Y5522D02*
Y5578D01*
X9200Y5522D02*
Y5578D01*
X9180Y5522D02*
Y5578D01*
X9160Y5522D02*
Y5578D01*
X9140Y5522D02*
Y5578D01*
X9120Y5522D02*
Y5578D01*
X9047Y5522D02*
X9953D01*
X9100D02*
Y5578D01*
X9080Y5522D02*
Y5578D01*
X9060Y5522D02*
Y5578D01*
X9040Y5523D02*
Y5578D01*
X9022Y5523D02*
Y5578D01*
Y5523D02*
X9046D01*
X9705Y5680D02*
X9872D01*
X9718Y5845D02*
X9867D01*
X9135Y5680D02*
X9287D01*
X9140Y5847D02*
X9282D01*
X9765Y3947D02*
X9780Y3933D01*
X9220D02*
X9235Y3947D01*
X9022Y5410D02*
Y5470D01*
X9040Y5410D02*
Y5470D01*
X9060Y5410D02*
Y5470D01*
X9080Y5410D02*
Y5470D01*
X9100Y5410D02*
Y5470D01*
X9120Y5410D02*
Y5470D01*
X9022Y5410D02*
X9978D01*
X9140D02*
Y5470D01*
X9160Y5410D02*
Y5470D01*
X9180Y5410D02*
Y5470D01*
X9200Y5410D02*
Y5470D01*
X9220Y5410D02*
Y5470D01*
X9240Y5410D02*
Y5470D01*
X9260Y5410D02*
Y5470D01*
X9280Y5410D02*
Y5470D01*
X9300Y5410D02*
Y5470D01*
X9320Y5410D02*
Y5470D01*
X9340Y5410D02*
Y5470D01*
X9360Y5410D02*
Y5470D01*
X9380Y5410D02*
Y5470D01*
X9022Y5420D02*
X9978D01*
X9022Y5440D02*
X9978D01*
X9022Y5460D02*
X9978D01*
X9400Y5410D02*
Y5470D01*
X9022D02*
X9978D01*
X9420Y5410D02*
Y5470D01*
X9440Y5410D02*
Y5470D01*
X9460Y5410D02*
Y5470D01*
X9480Y5410D02*
Y5470D01*
X9500Y5410D02*
Y5470D01*
X9520Y5410D02*
Y5470D01*
X9540Y5410D02*
Y5470D01*
X9560Y5410D02*
Y5470D01*
X9580Y5410D02*
Y5470D01*
X9600Y5410D02*
Y5470D01*
X9620Y5410D02*
Y5470D01*
X9640Y5410D02*
Y5470D01*
X9660Y5410D02*
Y5470D01*
X9680Y5410D02*
Y5470D01*
X9700Y5410D02*
Y5470D01*
X9720Y5410D02*
Y5470D01*
X9740Y5410D02*
Y5470D01*
X9760Y5410D02*
Y5470D01*
X9780Y5410D02*
Y5470D01*
X9800Y5410D02*
Y5470D01*
X9820Y5410D02*
Y5470D01*
X9840Y5410D02*
Y5470D01*
X9860Y5410D02*
Y5470D01*
X9880Y5410D02*
Y5470D01*
X9900Y5410D02*
Y5470D01*
X9920Y5410D02*
Y5470D01*
X9940Y5410D02*
Y5470D01*
X9960Y5410D02*
Y5470D01*
X9978Y5410D02*
Y5470D01*
X9500Y5122D02*
Y5225D01*
X9132Y4870D02*
X9160Y4842D01*
X9065Y4585D02*
X9103Y4547D01*
X9065Y4585D02*
Y4642D01*
X9103Y4547D02*
X9178D01*
X9700Y4785D02*
Y4858D01*
Y4785D02*
X9735Y4750D01*
Y4688D02*
Y4750D01*
X9495Y4853D02*
X9500Y4847D01*
X9297Y4853D02*
X9495D01*
X9500Y4780D02*
Y4920D01*
X9632Y4928D02*
Y5038D01*
Y4940D02*
X9648D01*
X9640Y4934D02*
Y5038D01*
X9660Y4946D02*
Y5038D01*
X9680Y4953D02*
Y5038D01*
X9700Y4955D02*
Y5038D01*
X9740Y4946D02*
Y5038D01*
X9720Y4953D02*
Y5038D01*
X9632Y4960D02*
X9747D01*
Y4943D02*
Y4990D01*
X9632Y4980D02*
X9747D01*
X9632Y5000D02*
X9768D01*
X9632Y5020D02*
X9768D01*
X9747Y4990D02*
X9768D01*
X9760D02*
Y5038D01*
X9768Y4990D02*
Y5038D01*
X9632D02*
X9768D01*
X9818Y5338D02*
Y5360D01*
X9820Y5338D02*
Y5360D01*
X9840Y5338D02*
Y5360D01*
X9860Y5338D02*
Y5360D01*
X9818Y5108D02*
X9968D01*
X9818Y5112D02*
X9968D01*
X9818Y5338D02*
X9968D01*
X9818Y5340D02*
X9978D01*
X9818Y5360D02*
X9978D01*
X9880Y5338D02*
Y5360D01*
X9900Y5338D02*
Y5360D01*
X9818Y5360D02*
X9978D01*
X9912Y4868D02*
X9978D01*
X9912D02*
Y4883D01*
X9920Y4868D02*
Y4883D01*
X9940Y4868D02*
Y4883D01*
X9960Y4868D02*
Y4883D01*
X9912D02*
X9968D01*
X9978Y4868D02*
Y5360D01*
X9968Y4883D02*
Y5108D01*
X9912Y4880D02*
X9978D01*
X9968Y4900D02*
X9978D01*
X9968Y4920D02*
X9978D01*
X9968Y4940D02*
X9978D01*
X9968Y4960D02*
X9978D01*
X9968Y4980D02*
X9978D01*
X9968Y5000D02*
X9978D01*
X9968Y5020D02*
X9978D01*
X9968Y5040D02*
X9978D01*
X9968Y5060D02*
X9978D01*
X9968Y5080D02*
X9978D01*
X9968Y5100D02*
X9978D01*
X9968Y5120D02*
X9978D01*
X9920Y5338D02*
Y5360D01*
X9940Y5338D02*
Y5360D01*
X9968Y5112D02*
Y5338D01*
X9960D02*
Y5360D01*
X9968Y5140D02*
X9978D01*
X9968Y5160D02*
X9978D01*
X9968Y5180D02*
X9978D01*
X9968Y5200D02*
X9978D01*
X9968Y5220D02*
X9978D01*
X9968Y5240D02*
X9978D01*
X9968Y5260D02*
X9978D01*
X9968Y5280D02*
X9978D01*
X9968Y5300D02*
X9978D01*
X9968Y5320D02*
X9978D01*
X9022Y4960D02*
X9032D01*
X9022Y4980D02*
X9032D01*
X9022Y5000D02*
X9032D01*
X9022Y5020D02*
X9032D01*
X9022Y4868D02*
Y5360D01*
Y5040D02*
X9032D01*
X9022Y4868D02*
X9083D01*
X9022Y4880D02*
X9084D01*
X9022Y5060D02*
X9032D01*
X9022Y5080D02*
X9032D01*
X9022Y5100D02*
X9032D01*
X9022Y5120D02*
X9032D01*
X9022Y5140D02*
X9032D01*
X9022Y5160D02*
X9032D01*
X9022Y5180D02*
X9032D01*
X9022Y5200D02*
X9032D01*
X9022Y5220D02*
X9032D01*
X9022Y5240D02*
X9032D01*
X9022Y5260D02*
X9032D01*
X9022Y5280D02*
X9032D01*
X9022Y5300D02*
X9032D01*
X9022Y5320D02*
X9032D01*
X9022Y5340D02*
X9182D01*
X9022Y5360D02*
X9182D01*
X9022Y5360D02*
X9182D01*
X9022Y4900D02*
X9032D01*
X9040Y4868D02*
Y4883D01*
X9022Y4920D02*
X9032D01*
X9022Y4940D02*
X9032D01*
Y4883D02*
Y5108D01*
X9032Y5112D02*
Y5338D01*
X9060Y4868D02*
Y4883D01*
X9080Y4868D02*
Y4883D01*
X9032D02*
X9084D01*
X9032Y5108D02*
X9182D01*
X9032Y5112D02*
X9182D01*
X9040Y5338D02*
Y5360D01*
X9060Y5338D02*
Y5360D01*
X9080Y5338D02*
Y5360D01*
X9100Y5338D02*
Y5360D01*
X9120Y5338D02*
Y5360D01*
X9032Y5338D02*
X9182D01*
X9140D02*
Y5360D01*
X9160Y5338D02*
Y5360D01*
X9182Y5338D02*
Y5360D01*
X9180Y5338D02*
Y5360D01*
X9325Y4567D02*
X9338Y4580D01*
X9325Y4458D02*
Y4567D01*
X9405Y4562D02*
Y4580D01*
X9338D02*
X9405D01*
X9868Y4370D02*
Y4540D01*
X9485Y4133D02*
X9500Y4147D01*
X9105Y4335D02*
X9125Y4355D01*
X9105Y4280D02*
Y4335D01*
X9125Y4355D02*
X9220D01*
X9105Y4055D02*
X9130Y4030D01*
X9360Y4133D02*
X9485D01*
X9668Y4275D02*
Y4465D01*
X9735Y4030D02*
X9778Y4072D01*
X9105Y4055D02*
Y4130D01*
X9778Y4072D02*
Y4240D01*
X9743Y4275D02*
X9778Y4240D01*
X9130Y4030D02*
X9735D01*
X9668Y4275D02*
X9743D01*
X9560Y4545D02*
X9595Y4580D01*
X9882Y5108D02*
X9940D01*
X9700Y5112D02*
X9747D01*
X9872D02*
X9882D01*
X9747Y5108D02*
X9872D01*
X9742Y5340D02*
X9935D01*
X9157D02*
X9250D01*
X9182Y5108D02*
X9260D01*
D11*
X9178Y4120D02*
G03*
X9315Y4205I43J85D01*
G01*
G03*
X9278Y4280I-95J0D01*
G01*
X9272Y4536D02*
G03*
X9272Y4547I-94J11D01*
G01*
X9278Y4280D02*
G03*
X9315Y4355I-58J75D01*
G01*
X9272Y4547D02*
G03*
X9251Y4608I-95J0D01*
G01*
X9291Y4601D02*
G03*
X9278Y4567I34J-34D01*
G01*
X9291Y4601D02*
G03*
X9278Y4567I34J-34D01*
G01*
X9315Y4355D02*
G03*
X9315Y4363I-95J0D01*
G01*
G03*
X9386Y4385I10J94D01*
G01*
X9182Y4642D02*
G03*
X9153Y4639I-5J-95D01*
G01*
X9228Y4788D02*
G03*
X9255Y4767I69J65D01*
G01*
X9340D02*
G03*
X9380Y4805I-42J85D01*
G01*
X9606Y4195D02*
G03*
X9604Y4078I74J-60D01*
G01*
X9768Y4315D02*
G03*
X9755Y4321I-25J-40D01*
G01*
X9768Y4315D02*
G03*
X9755Y4321I-25J-40D01*
G01*
X9801Y4608D02*
G03*
X9820Y4458I67J-68D01*
G01*
X9779Y4767D02*
G03*
X9769Y4784I-44J-17D01*
G01*
X9613Y4820D02*
G03*
X9654Y4775I87J37D01*
G01*
X9779Y4767D02*
G03*
X9769Y4784I-44J-17D01*
G01*
X9815Y4619D02*
G03*
X9801Y4608I52J-79D01*
G01*
X9845Y4632D02*
G03*
X9815Y4619I22J-92D01*
G01*
X9178Y4078D02*
Y4120D01*
X9180Y4078D02*
Y4119D01*
X9200Y4078D02*
Y4112D01*
X9220Y4078D02*
Y4110D01*
X9240Y4078D02*
Y4112D01*
X9260Y4078D02*
Y4119D01*
X9280Y4078D02*
Y4131D01*
X9300Y4078D02*
Y4154D01*
X9315Y4200D02*
X9375D01*
X9380Y4078D02*
Y4195D01*
X9314Y4220D02*
X9375D01*
X9308Y4240D02*
X9375D01*
X9297Y4260D02*
X9375D01*
X9278Y4280D02*
X9375D01*
X9300Y4256D02*
Y4304D01*
X9297Y4300D02*
X9375D01*
X9278Y4540D02*
Y4567D01*
X9320Y4078D02*
Y4363D01*
X9340Y4078D02*
Y4364D01*
X9375Y4195D02*
Y4355D01*
X9360Y4078D02*
Y4369D01*
X9308Y4320D02*
X9375D01*
X9314Y4340D02*
X9375D01*
X9178Y4078D02*
X9420D01*
X9178Y4080D02*
X9420D01*
X9178Y4100D02*
X9420D01*
X9262Y4120D02*
X9420D01*
X9289Y4140D02*
X9420D01*
X9304Y4160D02*
X9420D01*
X9312Y4180D02*
X9420D01*
X9375Y4195D02*
X9420D01*
X9400Y4078D02*
Y4195D01*
X9420Y4078D02*
Y4195D01*
X9420Y4078D02*
Y4195D01*
X9380Y4355D02*
Y4380D01*
X9400Y4355D02*
Y4385D01*
X9375Y4355D02*
X9535D01*
X9315Y4360D02*
X9555D01*
X9420Y4355D02*
Y4385D01*
X9440Y4355D02*
Y4385D01*
X9380Y4380D02*
X9555D01*
X9386Y4385D02*
X9535D01*
X9460Y4355D02*
Y4385D01*
X9480Y4355D02*
Y4385D01*
X9485Y4545D02*
Y4660D01*
X9500Y4545D02*
Y4680D01*
X9485Y4545D02*
X9515D01*
X9485Y4560D02*
X9515D01*
X9153Y4660D02*
X9182D01*
X9153Y4680D02*
X9182D01*
X9153Y4700D02*
X9182D01*
X9020Y4767D02*
X9153D01*
X9100D02*
Y4788D01*
X9153Y4720D02*
X9182D01*
X9020Y4780D02*
X9236D01*
X9153Y4639D02*
Y4767D01*
X9182Y4642D02*
Y4767D01*
X9260Y4595D02*
Y4608D01*
X9153Y4740D02*
X9182D01*
X9153Y4760D02*
X9182D01*
Y4767D02*
X9255D01*
X9240D02*
Y4777D01*
X9020Y4767D02*
Y4820D01*
X9040Y4767D02*
Y4820D01*
X9060Y4767D02*
Y4820D01*
X9080Y4767D02*
Y4820D01*
X9020Y4800D02*
X9088D01*
X9020Y4820D02*
X9088D01*
Y4788D02*
X9228D01*
X9020Y4820D02*
X9088D01*
X9120Y4767D02*
Y4788D01*
X9140Y4767D02*
Y4788D01*
X9160Y4641D02*
Y4788D01*
X9180Y4642D02*
Y4788D01*
X9200Y4767D02*
Y4788D01*
X9088D02*
Y4820D01*
X9220Y4767D02*
Y4788D01*
X9267Y4580D02*
X9279D01*
X9280Y4583D02*
Y4608D01*
X9257Y4600D02*
X9290D01*
X9291Y4601D02*
X9298Y4608D01*
X9251D02*
X9298D01*
X9343Y4660D02*
X9485D01*
X9420Y4680D02*
X9580D01*
X9343Y4680D02*
X9655D01*
X9485Y4580D02*
X9515D01*
X9485Y4600D02*
X9515D01*
X9485Y4620D02*
X9515D01*
X9485Y4640D02*
X9515D01*
X9440Y4660D02*
Y4680D01*
X9460Y4660D02*
Y4680D01*
X9485Y4660D02*
X9515D01*
X9480Y4660D02*
Y4680D01*
X9343Y4700D02*
X9420D01*
X9343Y4720D02*
X9420D01*
X9343Y4740D02*
X9420D01*
X9343Y4760D02*
X9420D01*
X9343Y4660D02*
Y4767D01*
X9360Y4660D02*
Y4781D01*
X9380Y4660D02*
Y4805D01*
X9400Y4660D02*
Y4805D01*
X9420Y4660D02*
Y4805D01*
X9420Y4680D02*
Y4805D01*
X9359Y4780D02*
X9420D01*
X9377Y4800D02*
X9420D01*
X9380Y4805D02*
X9420D01*
X9535Y4247D02*
X9580D01*
X9535D02*
Y4355D01*
Y4260D02*
X9588D01*
X9535Y4280D02*
X9588D01*
X9535Y4300D02*
X9555D01*
X9500Y4355D02*
Y4385D01*
X9535Y4320D02*
X9555D01*
X9535Y4340D02*
X9555D01*
X9580Y4100D02*
X9592D01*
X9580Y4078D02*
Y4247D01*
Y4080D02*
X9603D01*
X9580Y4160D02*
X9588D01*
X9560Y4247D02*
Y4290D01*
X9580Y4247D02*
Y4290D01*
X9588Y4195D02*
Y4290D01*
X9555D02*
X9588D01*
X9520Y4355D02*
Y4385D01*
X9535D02*
Y4500D01*
Y4400D02*
X9555D01*
X9535Y4420D02*
X9555D01*
X9535Y4440D02*
X9555D01*
X9515Y4545D02*
Y4660D01*
X9535Y4460D02*
X9588D01*
X9535Y4480D02*
X9588D01*
X9555Y4290D02*
Y4450D01*
X9540Y4247D02*
Y4500D01*
X9555Y4450D02*
X9588D01*
X9560D02*
Y4500D01*
X9580Y4450D02*
Y4500D01*
X9588Y4450D02*
Y4500D01*
X9535D02*
X9588D01*
X9535Y4500D02*
X9588D01*
X9580Y4180D02*
X9596D01*
X9600Y4186D02*
Y4195D01*
X9580Y4078D02*
X9604D01*
X9588Y4195D02*
X9606D01*
X9755Y4340D02*
X9768D01*
X9758Y4320D02*
X9768D01*
X9755Y4321D02*
Y4450D01*
Y4360D02*
X9768D01*
Y4315D02*
Y4450D01*
X9755Y4380D02*
X9768D01*
X9755Y4400D02*
X9768D01*
X9755Y4420D02*
X9768D01*
X9755Y4440D02*
X9768D01*
X9747Y4500D02*
X9781D01*
X9675Y4545D02*
X9747D01*
Y4460D02*
X9816D01*
X9747Y4480D02*
X9794D01*
X9675Y4545D02*
Y4608D01*
X9680Y4545D02*
Y4608D01*
X9700Y4545D02*
Y4608D01*
X9720Y4545D02*
Y4608D01*
X9747Y4450D02*
Y4545D01*
X9760Y4319D02*
Y4608D01*
X9768Y4450D02*
X9820D01*
X9780D02*
Y4503D01*
X9747Y4520D02*
X9775D01*
X9747Y4540D02*
X9772D01*
X9800Y4450D02*
Y4473D01*
X9520Y4660D02*
Y4680D01*
X9540Y4660D02*
Y4680D01*
X9515Y4660D02*
X9655D01*
X9560D02*
Y4680D01*
X9580Y4660D02*
Y4680D01*
X9580Y4700D02*
X9655D01*
X9580Y4720D02*
X9655D01*
X9675Y4560D02*
X9775D01*
X9740Y4545D02*
Y4608D01*
X9780Y4577D02*
Y4608D01*
X9580Y4740D02*
X9655D01*
X9675Y4580D02*
X9781D01*
X9675Y4600D02*
X9794D01*
X9580Y4800D02*
X9624D01*
X9580Y4680D02*
Y4810D01*
Y4760D02*
X9655D01*
X9580Y4780D02*
X9645D01*
X9580Y4810D02*
X9597D01*
Y4820D01*
X9613D01*
X9597Y4820D02*
X9613D01*
X9620Y4660D02*
Y4806D01*
X9600Y4660D02*
Y4820D01*
X9655Y4660D02*
Y4767D01*
X9640Y4660D02*
Y4784D01*
X9780Y4767D02*
Y4788D01*
X9675Y4608D02*
X9801D01*
X9815Y4640D02*
X9845D01*
X9815Y4660D02*
X9845D01*
X9779Y4767D02*
X9815D01*
Y4680D02*
X9845D01*
X9815Y4700D02*
X9845D01*
X9815Y4619D02*
Y4767D01*
X9845Y4632D02*
Y4767D01*
X9815Y4720D02*
X9845D01*
X9815Y4740D02*
X9845D01*
X9815Y4760D02*
X9845D01*
Y4767D02*
X9980D01*
X9800D02*
Y4788D01*
X9820Y4622D02*
Y4788D01*
X9840Y4631D02*
Y4788D01*
X9860Y4767D02*
Y4788D01*
X9880Y4767D02*
Y4788D01*
X9900Y4767D02*
Y4788D01*
X9772Y4780D02*
X9980D01*
X9765Y4788D02*
X9910D01*
X9920Y4767D02*
Y4820D01*
X9940Y4767D02*
Y4820D01*
X9960Y4767D02*
Y4820D01*
X9980Y4767D02*
Y4820D01*
X9910Y4788D02*
Y4820D01*
X9980Y4767D02*
Y4820D01*
X9910Y4800D02*
X9980D01*
X9910Y4820D02*
X9980D01*
X9910Y4820D02*
X9980D01*
X9132Y5225D02*
X9300D01*
X9700D02*
X9868D01*
D12*
X9220Y3692D02*
D03*
X9780D02*
D03*
D13*
X9300Y5765D02*
D03*
X9500D02*
D03*
X9700D02*
D03*
X9300Y5225D02*
D03*
X9500D02*
D03*
X9700D02*
D03*
D14*
X9405Y3947D02*
D03*
X9595D02*
D03*
X9405Y4580D02*
D03*
X9595D02*
D03*
X9925Y4688D02*
D03*
X9735D02*
D03*
X9668Y4275D02*
D03*
Y4465D02*
D03*
X9262Y4688D02*
D03*
X9072D02*
D03*
X9455Y4465D02*
D03*
Y4275D02*
D03*
D15*
X9500Y4147D02*
D03*
Y4780D02*
D03*
X9830Y4888D02*
D03*
X9168D02*
D03*
D16*
X9132Y5225D02*
D03*
Y4995D02*
D03*
X9500Y4920D02*
D03*
Y5150D02*
D03*
X9868Y5225D02*
D03*
Y4995D02*
D03*
D17*
X9868Y4370D02*
D03*
X9655D02*
D03*
D18*
X9105Y4130D02*
D03*
Y4280D02*
D03*
D19*
X9700Y5765D02*
X9805D01*
X9195D02*
X9300D01*
X9700Y5050D02*
Y5225D01*
X9868Y5125D02*
Y5225D01*
Y5325D01*
Y5225D02*
X9955D01*
X9132Y5125D02*
Y5225D01*
X9045D02*
X9132D01*
Y5325D01*
X9430Y4147D02*
X9500D01*
X9385Y4275D02*
X9455D01*
Y4345D01*
X9500Y4147D02*
X9570D01*
X9455Y4275D02*
X9525D01*
X9455Y4395D02*
Y4465D01*
X9525D01*
X9262Y4617D02*
Y4688D01*
X9193D02*
X9262D01*
Y4758D01*
Y4688D02*
X9332D01*
X9525Y4580D02*
X9595D01*
X9665D01*
X9595D02*
Y4650D01*
X9855Y4688D02*
X9925D01*
Y4758D01*
D20*
X9500Y5560D02*
Y5700D01*
Y5230D02*
Y5440D01*
D21*
X9595Y3947D02*
X9765D01*
X9235D02*
X9405D01*
X9560Y4460D02*
Y4545D01*
X9455Y4465D02*
X9500Y4510D01*
Y4572D01*
D22*
X9875Y4133D02*
D03*
X9680Y4135D02*
D03*
X9220Y3453D02*
D03*
Y3572D02*
D03*
Y3692D02*
D03*
Y3812D02*
D03*
Y3933D02*
D03*
X9780Y3453D02*
D03*
Y3572D02*
D03*
Y3692D02*
D03*
Y3812D02*
D03*
Y3933D02*
D03*
X9700Y4858D02*
D03*
X9360Y4133D02*
D03*
X9297Y4853D02*
D03*
X9868Y4995D02*
D03*
X9132D02*
D03*
X9868Y4540D02*
D03*
X9178Y4547D02*
D03*
X9325Y4458D02*
D03*
X9220Y4355D02*
D03*
X9350Y4990D02*
D03*
X9220Y4205D02*
D03*
M02*
