%FSLAX42Y42*%
%MOMM*%
G71*
G01*
G75*
%ADD10C,0.25*%
%ADD11C,0.20*%
%ADD12R,2.60X6.00*%
%ADD13R,1.60X3.00*%
%ADD14R,0.90X0.90*%
%ADD15R,0.90X1.30*%
%ADD16R,1.25X1.50*%
%ADD17R,1.30X0.90*%
%ADD18R,0.75X0.75*%
%ADD19C,0.25*%
%ADD20C,0.50*%
%ADD21C,0.30*%
%ADD22C,1.20*%
%ADD23C,1.00*%
%ADD24R,2.50X2.50*%
%ADD25R,0.80X0.35*%
%ADD26R,0.35X0.80*%
%ADD27C,0.35*%
%ADD28R,2.80X6.20*%
%ADD29R,1.80X3.20*%
%ADD30R,1.10X1.10*%
%ADD31R,1.10X1.50*%
%ADD32R,1.45X1.70*%
%ADD33R,1.50X1.10*%
%ADD34R,0.95X0.95*%
%ADD35C,1.40*%
%ADD36C,1.20*%
%ADD37R,2.70X2.70*%
%ADD38R,1.00X0.55*%
%ADD39R,0.55X1.00*%
D28*
X9220Y3692D02*
D03*
X9780D02*
D03*
D29*
X9700Y5765D02*
D03*
X9500D02*
D03*
X9300D02*
D03*
X9700Y5225D02*
D03*
X9500D02*
D03*
X9300D02*
D03*
D30*
X9405Y3947D02*
D03*
X9595D02*
D03*
D31*
X9500Y4147D02*
D03*
D32*
X9868Y4540D02*
D03*
Y4770D02*
D03*
D34*
X9107Y4833D02*
D03*
Y4683D02*
D03*
X9785Y4305D02*
D03*
X9935D02*
D03*
X9105Y4430D02*
D03*
Y4280D02*
D03*
X9680Y4305D02*
D03*
X9530D02*
D03*
D35*
X9875Y4133D02*
D03*
X9680Y4135D02*
D03*
X9220Y3453D02*
D03*
Y3572D02*
D03*
Y3692D02*
D03*
Y3812D02*
D03*
Y3933D02*
D03*
X9780Y3453D02*
D03*
Y3572D02*
D03*
Y3692D02*
D03*
Y3812D02*
D03*
Y3933D02*
D03*
X9700Y4858D02*
D03*
X9360Y4133D02*
D03*
X9297Y4853D02*
D03*
X9868Y4995D02*
D03*
X9132D02*
D03*
X9868Y4540D02*
D03*
X9178Y4547D02*
D03*
X9325Y4458D02*
D03*
X9220Y4355D02*
D03*
X9350Y4990D02*
D03*
X9220Y4205D02*
D03*
D36*
X9488Y5000D02*
D03*
D37*
X9500Y4658D02*
D03*
D38*
X9697Y4560D02*
D03*
Y4625D02*
D03*
Y4690D02*
D03*
Y4755D02*
D03*
X9297Y4755D02*
D03*
Y4690D02*
D03*
Y4625D02*
D03*
Y4560D02*
D03*
D39*
X9597Y4858D02*
D03*
X9532D02*
D03*
X9468D02*
D03*
X9403D02*
D03*
Y4458D02*
D03*
X9468D02*
D03*
X9532D02*
D03*
X9597D02*
D03*
M02*
