%FSLAX42Y42*%
%MOMM*%
G71*
G01*
G75*
G04 Layer_Physical_Order=2*
%ADD10R,1.50X1.50*%
%ADD11R,1.60X3.00*%
%ADD12C,1.00*%
%ADD13C,2.00*%
%ADD14C,0.25*%
%ADD15C,0.25*%
D10*
X765Y1127D02*
D03*
X500D02*
D03*
X235Y1127D02*
D03*
D11*
X300Y1273D02*
D03*
X500D02*
D03*
X700D02*
D03*
X300Y1812D02*
D03*
X500D02*
D03*
X700D02*
D03*
D12*
X500Y1265D02*
Y1468D01*
Y1610D02*
Y1812D01*
D13*
X732Y1273D02*
X848D01*
X140D02*
X267D01*
X735Y1812D02*
X852D01*
X150Y1812D02*
X267Y1812D01*
D14*
X952Y1570D02*
Y1625D01*
X940Y1570D02*
Y1625D01*
X920Y1570D02*
Y1625D01*
X900Y1570D02*
Y1625D01*
X880Y1570D02*
Y1625D01*
X860Y1570D02*
Y1625D01*
X840Y1570D02*
Y1625D01*
X820Y1570D02*
Y1625D01*
X800Y1570D02*
Y1625D01*
X780Y1570D02*
Y1625D01*
X760Y1570D02*
Y1625D01*
X740Y1570D02*
Y1625D01*
X720Y1570D02*
Y1625D01*
X700Y1570D02*
Y1625D01*
X680Y1570D02*
Y1625D01*
X660Y1570D02*
Y1625D01*
X640Y1570D02*
Y1625D01*
X620Y1570D02*
Y1625D01*
X600Y1570D02*
Y1625D01*
X580Y1570D02*
Y1625D01*
X560Y1570D02*
Y1625D01*
X540Y1570D02*
Y1625D01*
X520Y1570D02*
Y1625D01*
X500Y1570D02*
Y1625D01*
X480Y1570D02*
Y1625D01*
X460Y1570D02*
Y1625D01*
X440Y1570D02*
Y1625D01*
X420Y1570D02*
Y1625D01*
X50D02*
X952D01*
X400Y1570D02*
Y1625D01*
X47Y1607D02*
X952D01*
X380Y1570D02*
Y1625D01*
X47Y1587D02*
X952D01*
X360Y1570D02*
Y1625D01*
X340Y1570D02*
Y1625D01*
X320Y1570D02*
Y1625D01*
X300Y1570D02*
Y1625D01*
X280Y1570D02*
Y1625D01*
X260Y1570D02*
Y1625D01*
X240Y1570D02*
Y1625D01*
X220Y1570D02*
Y1625D01*
X200Y1570D02*
Y1625D01*
X180Y1570D02*
Y1625D01*
X160Y1570D02*
Y1625D01*
X47Y1570D02*
X952D01*
X140D02*
Y1625D01*
X120Y1570D02*
Y1625D01*
X100Y1570D02*
Y1625D01*
X80Y1570D02*
Y1625D01*
X60Y1570D02*
Y1625D01*
X47Y1570D02*
Y1625D01*
X818Y1767D02*
X952D01*
X818Y1747D02*
X952D01*
X818Y1727D02*
X952D01*
X818Y1707D02*
X952D01*
Y1675D02*
Y1950D01*
X940Y1675D02*
Y1950D01*
X818Y1687D02*
X952D01*
X920Y1675D02*
Y1950D01*
X900Y1675D02*
Y1950D01*
X880Y1675D02*
Y1950D01*
X860Y1675D02*
Y1950D01*
X840Y1675D02*
Y1950D01*
X820Y1675D02*
Y1950D01*
X818D02*
X952D01*
X818Y1947D02*
X952D01*
X818Y1927D02*
X952D01*
X818Y1907D02*
X952D01*
X818Y1887D02*
X952D01*
X818Y1867D02*
X952D01*
X818Y1847D02*
X952D01*
X818Y1827D02*
X952D01*
X818Y1807D02*
X952D01*
X818Y1787D02*
X952D01*
X818Y1675D02*
Y1950D01*
Y1675D02*
X952D01*
X47Y1747D02*
X183D01*
X47Y1727D02*
X183D01*
X47Y1707D02*
X183D01*
X180Y1675D02*
Y1950D01*
X183Y1675D02*
Y1950D01*
X47Y1687D02*
X183D01*
X160Y1675D02*
Y1950D01*
X140Y1675D02*
Y1950D01*
X120Y1675D02*
Y1950D01*
X100Y1675D02*
Y1950D01*
X80Y1675D02*
Y1950D01*
X60Y1675D02*
Y1950D01*
X47D02*
X183D01*
X47Y1947D02*
X183D01*
X47Y1927D02*
X183D01*
X47Y1907D02*
X183D01*
X47Y1887D02*
X183D01*
X47Y1867D02*
X183D01*
X47Y1847D02*
X183D01*
X47Y1827D02*
X183D01*
X47Y1807D02*
X183D01*
X47Y1787D02*
X183D01*
X47Y1675D02*
Y1950D01*
Y1767D02*
X183D01*
X50Y1675D02*
X183D01*
X952Y1460D02*
Y1520D01*
X940Y1460D02*
Y1520D01*
X920Y1460D02*
Y1520D01*
X900Y1460D02*
Y1520D01*
X880Y1460D02*
Y1520D01*
X860Y1460D02*
Y1520D01*
X840Y1460D02*
Y1520D01*
X820Y1460D02*
Y1520D01*
X800Y1460D02*
Y1520D01*
X780Y1460D02*
Y1520D01*
X760Y1460D02*
Y1520D01*
X740Y1460D02*
Y1520D01*
X720Y1460D02*
Y1520D01*
X700Y1460D02*
Y1520D01*
X680Y1460D02*
Y1520D01*
X660Y1460D02*
Y1520D01*
X640Y1460D02*
Y1520D01*
X620Y1460D02*
Y1520D01*
X600Y1460D02*
Y1520D01*
X580Y1460D02*
Y1520D01*
X560Y1460D02*
Y1520D01*
X540Y1460D02*
Y1520D01*
X520Y1460D02*
Y1520D01*
X500Y1460D02*
Y1520D01*
X480Y1460D02*
Y1520D01*
X460Y1460D02*
Y1520D01*
X440Y1460D02*
Y1520D01*
X420Y1460D02*
Y1520D01*
X47D02*
X952D01*
X400Y1460D02*
Y1520D01*
X47Y1507D02*
X952D01*
X47Y1487D02*
X952D01*
X47Y1467D02*
X952D01*
X380Y1460D02*
Y1520D01*
X360Y1460D02*
Y1520D01*
X340Y1460D02*
Y1520D01*
X320Y1460D02*
Y1520D01*
X300Y1460D02*
Y1520D01*
X280Y1460D02*
Y1520D01*
X260Y1460D02*
Y1520D01*
X240Y1460D02*
Y1520D01*
X220Y1460D02*
Y1520D01*
X200Y1460D02*
Y1520D01*
X180Y1460D02*
Y1520D01*
X160Y1460D02*
Y1520D01*
X47Y1460D02*
X952D01*
X140D02*
Y1520D01*
X120Y1460D02*
Y1520D01*
X100Y1460D02*
Y1520D01*
X80Y1460D02*
Y1520D01*
X60Y1460D02*
Y1520D01*
X47Y1460D02*
Y1520D01*
X183Y1240D02*
Y1409D01*
X180Y1240D02*
Y1409D01*
X160Y1240D02*
Y1409D01*
X138Y1240D02*
X183D01*
X140D02*
Y1409D01*
X47Y1207D02*
X138D01*
X47Y1187D02*
X138D01*
X47Y1167D02*
X138D01*
Y1065D02*
Y1240D01*
X120Y1065D02*
Y1409D01*
X47Y1147D02*
X138D01*
X100Y1065D02*
Y1409D01*
X80Y1065D02*
Y1409D01*
X60Y1065D02*
Y1409D01*
X47Y1065D02*
Y1409D01*
X183D01*
X47Y1407D02*
X183D01*
X47Y1387D02*
X183D01*
X47Y1367D02*
X183D01*
X47Y1347D02*
X183D01*
X47Y1327D02*
X183D01*
X47Y1307D02*
X183D01*
X47Y1287D02*
X183D01*
X47Y1267D02*
X183D01*
X47Y1247D02*
X183D01*
X47Y1227D02*
X138D01*
X47Y1127D02*
X138D01*
X47Y1107D02*
X138D01*
X47Y1087D02*
X138D01*
X47Y1067D02*
X138D01*
X47Y1065D02*
X138D01*
X862Y1227D02*
X952D01*
X862Y1207D02*
X952D01*
X862Y1187D02*
X952D01*
X862Y1167D02*
X952D01*
X862Y1147D02*
X952D01*
X860Y1240D02*
Y1410D01*
X862Y1127D02*
X952D01*
X862Y1107D02*
X952D01*
X862Y1087D02*
X952D01*
Y1065D02*
Y1410D01*
X940Y1065D02*
Y1410D01*
X862Y1067D02*
X952D01*
X862Y1065D02*
X952D01*
X920D02*
Y1410D01*
X900Y1065D02*
Y1410D01*
X880Y1065D02*
Y1410D01*
X862Y1065D02*
Y1240D01*
X818Y1410D02*
X952D01*
X818Y1407D02*
X952D01*
X818Y1387D02*
X952D01*
X818Y1367D02*
X952D01*
X818Y1347D02*
X952D01*
X818Y1327D02*
X952D01*
X818Y1307D02*
X952D01*
X818Y1287D02*
X952D01*
X818Y1267D02*
X952D01*
X818Y1247D02*
X952D01*
X818Y1240D02*
X862D01*
X840D02*
Y1410D01*
X820Y1240D02*
Y1410D01*
X818Y1240D02*
Y1410D01*
D15*
X700Y1812D02*
X805D01*
X195D02*
X300D01*
X195Y1273D02*
X300D01*
X150Y1127D02*
X238D01*
X762D02*
X850D01*
X700Y1273D02*
X805D01*
M02*
